<?xml version="1.0" encoding="utf-8"?>
<svg viewBox="0 0 500 500" xmlns="http://www.w3.org/2000/svg" xmlns:bx="https://boxy-svg.com">
  <defs>
    <style bx:fonts="Lato">@import url(https://fonts.googleapis.com/css2?family=Lato%3Aital%2Cwght%400%2C100%3B0%2C300%3B0%2C400%3B0%2C700%3B0%2C900%3B1%2C100%3B1%2C300%3B1%2C400%3B1%2C700%3B1%2C900&amp;display=swap);</style>
  </defs>
  <path class="st0" d="M222,675.6l-1-1.8c12.8-6.9,28.6-15.5,36.9-29.6c8.2-13.9,8.4-32.7,0.5-49.2c-6.7-14-19-26.6-35.6-36.3 c-3.3-1.9-6.7-3.7-10-5.5c-8-4.3-16.3-8.7-23.2-14.9c-9.4-8.6-16.6-23-11.2-35.9c3.6-8.4,11.6-14,20.7-14.5l0.1,2 c-8.3,0.4-15.7,5.6-18.9,13.2c-4.9,11.9,1.8,25.5,10.8,33.6c6.7,6.1,14.9,10.4,22.8,14.6c3.3,1.8,6.8,3.6,10.1,5.5 c16.9,9.9,29.5,22.8,36.4,37.2c8.2,17.1,7.9,36.6-0.6,51.1C251.1,659.9,235,668.6,222,675.6z" style="fill: rgb(241, 241, 241);" transform="matrix(1, 0, 0, 1, -35.644497, -171.300001)"/>
  <ellipse class="st0" cx="211.7" cy="490.1" rx="17.5" ry="8.5" style="fill: rgb(241, 241, 241);" transform="matrix(1, 0, 0, 1, -35.644497, -171.300001)"/>
  <ellipse class="st0" cx="225.7" cy="546.1" rx="17.5" ry="8.5" style="fill: rgb(241, 241, 241);" transform="matrix(1, 0, 0, 1, -35.644497, -171.300001)"/>
  <ellipse class="st0" cx="193.7" cy="555.1" rx="17.5" ry="8.5" style="fill: rgb(241, 241, 241);" transform="matrix(1, 0, 0, 1, -35.644497, -171.300001)"/>
  <ellipse class="st0" cx="243.7" cy="602.1" rx="17.5" ry="8.5" style="fill: rgb(241, 241, 241);" transform="matrix(1, 0, 0, 1, -35.644497, -171.300001)"/>
  <ellipse class="st0" cx="278.7" cy="602.1" rx="17.5" ry="8.5" style="fill: rgb(241, 241, 241);" transform="matrix(1, 0, 0, 1, -35.644497, -171.300001)"/>
  <rect id="bc1144e2-c94b-4f66-aa77-0b454dfd4174" x="495" y="182.2" class="st1" width="562.8" height="267.1" style="fill: rgb(230, 230, 230);" transform="matrix(1, 0, 0, 1, -35.644497, -171.300001)"/>
  <rect id="ad6bb9d5-2e55-4525-b077-6ac2d5f26b45" x="511.1" y="205.1" class="st2" width="530.6" height="222.8" style="fill: rgb(255, 255, 255);" transform="matrix(1, 0, 0, 1, -35.644497, -171.300001)"/>
  <rect id="a1fdfaec-ef9f-458a-9330-7bb8c38fec43" x="494.8" y="166.7" class="st3" width="562.8" height="23.9" style="fill: rgb(21, 194, 203);" transform="matrix(1, 0, 0, 1, -35.644497, -171.300001)"/>
  <circle id="ac9f2818-2064-46b1-8104-b7d94390836e" class="st2" cx="512.5" cy="177.8" r="4.4" style="fill: rgb(255, 255, 255);" transform="matrix(1, 0, 0, 1, -35.644497, -171.300001)"/>
  <circle id="bd067119-2054-4d5f-9303-2e8fa40cc410" class="st2" cx="529.4" cy="177.8" r="4.4" style="fill: rgb(255, 255, 255);" transform="matrix(1, 0, 0, 1, -35.644497, -171.300001)"/>
  <circle id="ee5e9ca0-6fca-449b-8f84-cf683813bd65" class="st2" cx="546.2" cy="177.8" r="4.4" style="fill: rgb(255, 255, 255);" transform="matrix(1, 0, 0, 1, -35.644497, -171.300001)"/>
  <path id="acae6c4c-8028-4596-98db-d9926d2ed09f-355" class="st1" d="M748.4,258c-1.2,0-2.1,1-2.1,2.1s1,2.1,2.1,2.1h117.8 c1.2,0,2.1-1,2.1-2.1s-1-2.1-2.1-2.1H748.4z" style="fill: rgb(230, 230, 230);" transform="matrix(1, 0, 0, 1, -35.644497, -171.300001)"/>
  <path id="a061bcdc-636b-4d12-a036-d7339f47b36a-356" class="st1" d="M748.4,270.8c-1.2,0-2.1,1-2.1,2.2c0,1.2,1,2.1,2.1,2.1h60.1 c1.2,0,2.1-1,2.1-2.2c0-1.2-1-2.1-2.1-2.1H748.4z" style="fill: rgb(230, 230, 230);" transform="matrix(1, 0, 0, 1, -35.644497, -171.300001)"/>
  <path id="e4e4593e-e83d-4128-8cd7-f0323b36c2f2-357" class="st1" d="M745.5,333.2c-1.2,0-2.1,1-2.1,2.1s1,2.1,2.1,2.1h220.9 c1.2,0,2.1-1,2.1-2.1s-1-2.1-2.1-2.1H745.5z" style="fill: rgb(230, 230, 230);" transform="matrix(1, 0, 0, 1, -35.644497, -171.300001)"/>
  <path id="bf45783c-1d79-4b4f-82bb-39fc8a52f7aa-358" class="st1" d="M745.5,346.1c-1.2,0-2.1,1-2.1,2.2c0,1.2,1,2.1,2.1,2.1h163.2 c1.2,0,2.1-1,2.1-2.2c0-1.2-1-2.1-2.1-2.1H745.5z" style="fill: rgb(230, 230, 230);" transform="matrix(1, 0, 0, 1, -35.644497, -171.300001)"/>
  <path id="b544fc92-6fc6-4255-93fb-dee32d880d89-359" class="st1" d="M745.5,358.7c-1.2,0-2.1,1-2.1,2.2c0,1.2,1,2.1,2.1,2.1h220.9 c1.2,0,2.1-1,2.1-2.2c0-1.2-1-2.1-2.1-2.1H745.5z" style="fill: rgb(230, 230, 230);" transform="matrix(1, 0, 0, 1, -35.644497, -171.300001)"/>
  <path id="e14bb681-aaa1-4454-9da9-28d0809a146c-360" class="st1" d="M745.5,371.5c-1.2,0-2.1,1-2.1,2.2c0,1.2,1,2.1,2.1,2.1h163.2 c1.2,0,2.1-1,2.1-2.2c0-1.2-1-2.1-2.1-2.1H745.5z" style="fill: rgb(230, 230, 230);" transform="matrix(1, 0, 0, 1, -35.644497, -171.300001)"/>
  <g transform="matrix(1, 0, 0, 1, -35.644497, -171.300001)">
    <circle class="st4" cx="627.6" cy="304.4" r="18.7" style="fill: rgb(160, 97, 106);"/>
    <path class="st5" d="M621.7,289.5c0,0,8.7,2.3,13.2,3.3s4.1-1.7,4.1-1.7s5.9,0.8,5.6,0.2s2.5-3.9-0.8-7.6s-2.3-6.5-2.3-6.5h-2.8 l-0.8-1.1h-4.4c0,0-4.8-4.2-13.4-3s-18.7,4.5-19.6,9.7c-0.1,0.7-0.3,1.5-0.5,2.3c-2.3,9.9,2.6,19.1,7.8,27.9 c1.3,2.2,7.4,6.8,7.2,3.6s-5.5-10.4-1.8-10.9S623.4,295.6,621.7,289.5z" style="fill: rgb(47, 46, 65);"/>
    <path class="st3" d="M617,364.9c-3.6-0.3-7.2-0.9-10.7-1.8l0.2-3.7l1.6-29.6l0-0.2h32.9l5.2,27.3l0.7,3.7c-1.4,0.5-2.7,1-4.2,1.5 c0,0,0,0,0,0c-2,0.6-3.9,1.1-5.9,1.6c-2.7,0.6-5.4,1-8.1,1.2c-2.1,0.2-4.2,0.3-6.3,0.3C620.6,365.1,618.8,365,617,364.9z" style="fill: rgb(21, 194, 203);"/>
    <path class="st5" d="M595.8,359.6c-1.4-0.6-2.7-1.2-4-1.9l-0.6-0.3c-0.4-0.2-0.8-0.4-1.2-0.6c-0.5-0.3-1-0.6-1.5-0.9 c-0.5-0.3-1-0.6-1.4-0.8c0,0,0,0-0.1,0c-1.6-1-3.2-2.1-4.8-3.3c-0.3-0.2-0.5-0.4-0.8-0.6l-0.3-4.4l0.4-0.2l26.4-16.8l0.4-0.2l0,0 l3.7,0v13.9c2.1,3,3.5,9.4,4.4,17.8c0.1,1.2,0.2,2.4,0.3,3.7c-3.6-0.3-7.2-0.9-10.7-1.8c-0.4-0.1-0.7-0.2-1.1-0.3 c-2.2-0.6-4.4-1.3-6.5-2.1c-0.7-0.2-1.3-0.5-1.9-0.8l-0.1,0C596.4,359.8,596.1,359.7,595.8,359.6z" style="fill: rgb(47, 46, 65);"/>
    <path class="st5" d="M590.1,356.8c-0.5-0.3-1-0.6-1.5-0.9c-0.5-0.3-1-0.6-1.4-0.8c0,0,0,0-0.1,0c-1.6-1-3.2-2.1-4.8-3.3 c-0.3-0.2-0.5-0.4-0.8-0.6c-0.1-0.1-0.2-0.2-0.4-0.3c-1-0.7-1.9-1.5-2.8-2.3c0,0-0.1-0.1-0.1-0.1c0.9-0.7,1.9-1.3,3-1.6l1.1,0.3 l7.7,2.3l0,3.1L590.1,356.8z" style="fill: rgb(47, 46, 65);"/>
    <path class="st5" d="M654.7,356.8c-0.5,0.2-0.9,0.5-1.4,0.7c-0.1,0.1-0.2,0.1-0.3,0.2c-0.6,0.3-1.2,0.6-1.8,0.9c0,0,0,0,0,0 c0,0-0.1,0-0.1,0c-1.4,0.7-2.7,1.3-4.2,1.8c-1.4,0.5-2.7,1-4.2,1.5c0,0,0,0,0,0c-2,0.6-3.9,1.1-5.9,1.6c0-1.2,0.1-2.5,0.5-3.7 l0-0.2l1.3-21.1l-1.7-9l5-0.7l27.5,14.8c0,0-3,3-15.5,9.5C652.8,353.6,654.4,355.5,654.7,356.8z" style="fill: rgb(47, 46, 65);"/>
    <path class="st6" d="M628.4,361.2c-2,0.2-4,0.3-6,0.3c-1.9,0-3.9-0.1-5.8-0.3c0.1,1.2,0.2,2.4,0.3,3.7c1.8,0.2,3.6,0.2,5.5,0.2 c2.1,0,4.2-0.1,6.3-0.3c2.7-0.3,5.4-0.7,8.1-1.2c0-1.2,0.1-2.5,0.5-3.7l0-0.2C634.4,360.4,631.4,360.9,628.4,361.2z M685.7,276.1 c-12.2-34.9-50.3-53.4-85.3-41.2s-53.4,50.3-41.2,85.3c2.5,7.1,6.1,13.7,10.8,19.6c0.6,0.8,1.2,1.5,1.9,2.2 c0.1,0.1,0.1,0.1,0.1,0.2c1.6,1.8,3.2,3.5,5,5.1c0.4,0.4,0.9,0.8,1.3,1.2c0,0,0.1,0.1,0.1,0.1c0.9,0.8,1.8,1.6,2.8,2.3 c0.1,0.1,0.3,0.2,0.4,0.3c0.3,0.2,0.5,0.4,0.8,0.6c1.5,1.2,3.2,2.2,4.8,3.3c0,0,0,0,0.1,0c0.5,0.3,1,0.6,1.4,0.8 c0.5,0.3,1,0.6,1.5,0.9c0.4,0.2,0.8,0.4,1.2,0.6l0.6,0.3c1.3,0.7,2.6,1.3,4,1.9c0.3,0.1,0.6,0.2,0.8,0.4l0.1,0 c0.6,0.3,1.3,0.5,1.9,0.8c2.1,0.8,4.3,1.5,6.5,2.1c0.4,0.1,0.7,0.2,1.1,0.3c3.5,0.9,7.1,1.5,10.7,1.8c1.8,0.2,3.6,0.2,5.5,0.2 c2.1,0,4.2-0.1,6.3-0.3c2.7-0.3,5.4-0.7,8.1-1.2c2-0.4,4-1,5.9-1.6c0,0,0,0,0,0c1.4-0.4,2.8-0.9,4.2-1.5c1.4-0.6,2.8-1.2,4.2-1.8 c0,0,0.1,0,0.1,0c0,0,0,0,0,0c0.6-0.3,1.2-0.6,1.8-0.9c0.1,0,0.2-0.1,0.3-0.2c0.5-0.2,0.9-0.5,1.4-0.7c0,0,0,0,0.1,0 c1.2-0.7,2.4-1.4,3.5-2.1c0.3-0.2,0.6-0.4,1-0.6c0.5-0.3,0.9-0.6,1.4-0.9c0.6-0.4,1.2-0.8,1.8-1.3c0.2-0.1,0.4-0.3,0.5-0.4 c1.4-1.1,2.8-2.2,4.1-3.4C687.2,330.1,694.6,301.7,685.7,276.1L685.7,276.1z M665.9,344.2c-1.6,1.5-3.4,3-5.2,4.4 c-0.4,0.3-0.8,0.6-1.2,0.9c-0.4,0.3-0.8,0.6-1.2,0.9c-0.3,0.2-0.7,0.5-1.1,0.7c0,0-0.1,0-0.1,0.1c-0.3,0.2-0.5,0.3-0.8,0.5 c-0.8,0.5-1.6,1-2.5,1.5c-0.2,0.1-0.4,0.2-0.6,0.3c-0.1,0.1-0.2,0.1-0.3,0.2c-0.5,0.3-0.9,0.5-1.4,0.7c-0.1,0-0.1,0.1-0.2,0.1 c0,0,0,0-0.1,0c-0.3,0.2-0.6,0.3-1,0.5c-0.3,0.1-0.5,0.3-0.8,0.4c-1.1,0.5-2.2,1-3.4,1.5c-1.2,0.5-2.4,0.9-3.6,1.3 c-0.3,0.1-0.6,0.2-0.9,0.3c-1.4,0.5-2.9,0.9-4.3,1.2c-2.9,0.7-5.9,1.2-8.9,1.5c-2,0.2-4,0.3-6,0.3c-1.9,0-3.9-0.1-5.8-0.3 c-3.4-0.3-6.8-0.9-10.2-1.8c-0.1,0-0.3-0.1-0.4-0.1c-2.7-0.7-5.4-1.6-8-2.7c-0.1-0.1-0.3-0.1-0.4-0.2c-0.2-0.1-0.3-0.1-0.4-0.2 c-0.2-0.1-0.3-0.1-0.4-0.2c-1.1-0.5-2.2-1-3.3-1.6l-0.5-0.3c-1-0.5-2-1-2.9-1.6c-0.3-0.2-0.7-0.4-1-0.6c-0.4-0.2-0.8-0.5-1.1-0.7 c-0.1-0.1-0.2-0.1-0.3-0.2c-0.8-0.6-1.7-1.2-2.5-1.8c-0.6-0.4-1.1-0.8-1.7-1.3c-0.4-0.3-0.7-0.6-1.1-0.9c-0.2-0.2-0.5-0.4-0.7-0.6 c-0.3-0.3-0.6-0.5-0.9-0.8c-0.5-0.4-0.9-0.8-1.3-1.2c-1.7-1.6-3.3-3.2-4.8-5c-0.5-0.6-1-1.2-1.5-1.8c-0.1-0.1-0.2-0.2-0.3-0.4 c-21.7-27.4-17.1-67.2,10.3-88.9c27.4-21.7,67.2-17.1,88.9,10.3C692.5,284.6,689.8,321.7,665.9,344.2L665.9,344.2z" style="fill: rgb(63, 61, 86);"/>
  </g>
  <polygon class="st4" points="317.4,663.4 329.7,663.4 335.5,616.2 317.4,616.2 " style="fill: rgb(160, 97, 106);" transform="matrix(1, 0, 0, 1, -35.644497, -171.300001)"/>
  <path class="st5" d="M314.3,659.4l24.1,0h0c8.5,0,15.4,6.9,15.4,15.4v0.5l-39.5,0L314.3,659.4z" style="fill: rgb(47, 46, 65);" transform="matrix(1, 0, 0, 1, -35.644497, -171.300001)"/>
  <polygon class="st4" points="363.4,663.4 375.7,663.4 381.5,616.2 363.4,616.2 " style="fill: rgb(160, 97, 106);" transform="matrix(1, 0, 0, 1, -35.644497, -171.300001)"/>
  <path class="st5" d="M360.3,659.4l24.1,0h0c8.5,0,15.4,6.9,15.4,15.4v0.5l-39.5,0L360.3,659.4z" style="fill: rgb(47, 46, 65);" transform="matrix(1, 0, 0, 1, -35.644497, -171.300001)"/>
  <path class="st7" d="M280.2,476.6c3.8-4.1,3.6-10.4-0.5-14.2c-0.4-0.4-0.9-0.8-1.4-1.1l8.5-34.7l-17.5,6.2l-5.4,32 c-2.7,4.9-1,11,3.9,13.8C272,480.8,277.1,480,280.2,476.6L280.2,476.6z" style="fill: rgb(158, 97, 106);" transform="matrix(1, 0, 0, 1, -35.644497, -171.300001)"/>
  <path class="st7" d="M410.4,473.6c-3.8-4.1-3.6-10.4,0.5-14.2c0.4-0.4,0.9-0.8,1.4-1.1l-8.5-34.7l17.5,6.2l5.4,32 c2.7,4.9,1,11-3.9,13.8C418.7,477.8,413.5,477,410.4,473.6z" style="fill: rgb(158, 97, 106);" transform="matrix(1, 0, 0, 1, -35.644497, -171.300001)"/>
  <polygon class="st5" points="296.4,452.3 313.4,651.3 338.2,649.1 348.2,495.2 357,556.1 358.8,652.9 381.3,651.4 393.8,547.3 &#10;&#9;390.7,446.5 305.3,437.8 " style="fill: rgb(47, 46, 65);" transform="matrix(1, 0, 0, 1, -35.644497, -171.300001)"/>
  <circle class="st4" cx="343.1" cy="245.3" r="25.8" style="fill: rgb(160, 97, 106);" transform="matrix(1, 0, 0, 1, -35.644497, -171.300001)"/>
  <path class="st5" d="M334.9,224.7c0,0,12,3.2,18.3,4.5s5.6-2.4,5.6-2.4s8.2,1.1,7.7,0.2s3.4-5.4-1.1-10.5s-3.2-9-3.2-9h-3.9 l-1.1-1.5h-6c0,0-6.7-5.8-18.5-4.1s-25.8,6.3-27.1,13.4c-0.2,1-0.4,2-0.7,3.2c-3.2,13.6,3.6,26.4,10.8,38.5c1.8,3,10.2,9.4,10,5 s-7.6-14.4-2.5-15.1S337.3,233.1,334.9,224.7z" style="fill: rgb(47, 46, 65);" transform="matrix(1, 0, 0, 1, -35.644497, -171.300001)"/>
  <path class="st3" d="M316.3,279.9h45.4l32.1,169.6c0,0-28,2.4-44,8.4s-42.6-13.7-42.6-13.7L316.3,279.9z" style="fill: rgb(21, 194, 203);" transform="matrix(1, 0, 0, 1, -35.644497, -171.300001)"/>
  <path class="st5" d="M321.9,299.1v-19.1l-5.1,0l-37.6,23.9l8.2,130.9c0,0,9.6,43.7,24.3,43.2S337.6,321.8,321.9,299.1z" style="fill: rgb(47, 46, 65);" transform="matrix(1, 0, 0, 1, -35.644497, -171.300001)"/>
  <path class="st5" d="M291.3,307.4l-12.1-3.6c0,0-8.9,2.6-8.9,11.6s-7.7,136.9-7.7,136.9l24.5,2.2l5.2-65L291.3,307.4z" style="fill: rgb(47, 46, 65);" transform="matrix(1, 0, 0, 1, -35.644497, -171.300001)"/>
  <path class="st5" d="M358.3,292.4l-2.4-12.5l6.9-1l25,10c0,0,22.5,164.5,12.5,169.5s-16.8,1.1-16.8,1.1s-32.9-121.3-27.1-137.7 L358.3,292.4z" style="fill: rgb(47, 46, 65);" transform="matrix(1, 0, 0, 1, -35.644497, -171.300001)"/>
  <path class="st5" d="M370.3,291.4l4.3-1.9c0,0,12.5-6.2,19.6,6.3s32.1,152.5,32.1,152.5l-20.6,3.9l-15.4-50.4L370.3,291.4z" style="fill: rgb(47, 46, 65);" transform="matrix(1, 0, 0, 1, -35.644497, -171.300001)"/>
  <path class="st8" d="M536,675.9H155c-0.6,0-1-0.4-1-1s0.4-1,1-1h381c0.6,0,1,0.4,1,1S536.6,675.9,536,675.9z" style="fill: rgb(202, 202, 202);" transform="matrix(1, 0, 0, 1, -35.644497, -171.300001)"/>
  <g transform="matrix(1, 0, 0, 1, -35.644497, -171.300001)">
    <path d="M547.8,387.1c0,0.1,0,0.1-0.1,0.2c0,0.1-0.1,0.1-0.2,0.1c-0.1,0-0.2,0.1-0.4,0.1c-0.2,0-0.4,0-0.7,0c-0.3,0-0.5,0-0.7,0 c-0.2,0-0.3,0-0.4-0.1c-0.1,0-0.2-0.1-0.2-0.1c0-0.1-0.1-0.1-0.1-0.2v-13c0-0.1,0-0.1,0.1-0.2c0-0.1,0.1-0.1,0.2-0.1 c0.1,0,0.3-0.1,0.4-0.1c0.2,0,0.4,0,0.7,0c0.3,0,0.5,0,0.7,0s0.3,0,0.4,0.1c0.1,0,0.2,0.1,0.2,0.1c0,0.1,0.1,0.1,0.1,0.2V387.1z" style="fill: rgb(255, 255, 255);"/>
    <path d="M559.8,387.1c0,0.1,0,0.1-0.1,0.2c0,0.1-0.1,0.1-0.2,0.1s-0.2,0.1-0.4,0.1c-0.2,0-0.4,0-0.6,0c-0.3,0-0.5,0-0.7,0 c-0.2,0-0.3,0-0.4-0.1c-0.1,0-0.2-0.1-0.2-0.1c0-0.1-0.1-0.1-0.1-0.2v-5.4c0-0.5,0-0.8-0.1-1.1c-0.1-0.3-0.2-0.5-0.3-0.7 c-0.1-0.2-0.3-0.3-0.5-0.4c-0.2-0.1-0.4-0.2-0.7-0.2c-0.3,0-0.7,0.1-1,0.4c-0.3,0.2-0.7,0.6-1.1,1.1v6.3c0,0.1,0,0.1-0.1,0.2 s-0.1,0.1-0.2,0.1c-0.1,0-0.2,0.1-0.4,0.1c-0.2,0-0.4,0-0.7,0c-0.3,0-0.5,0-0.6,0c-0.2,0-0.3,0-0.4-0.1s-0.2-0.1-0.2-0.1 c0-0.1-0.1-0.1-0.1-0.2v-9.5c0-0.1,0-0.1,0.1-0.2c0-0.1,0.1-0.1,0.2-0.1c0.1,0,0.2-0.1,0.4-0.1s0.3,0,0.5,0c0.2,0,0.4,0,0.6,0 c0.1,0,0.3,0,0.3,0.1c0.1,0,0.1,0.1,0.2,0.1c0,0.1,0.1,0.1,0.1,0.2v1.1c0.5-0.6,1.1-1,1.6-1.3c0.5-0.3,1.1-0.4,1.7-0.4 c0.6,0,1.2,0.1,1.6,0.3s0.8,0.5,1.1,0.9c0.3,0.4,0.5,0.8,0.6,1.3c0.1,0.5,0.2,1.1,0.2,1.8V387.1z" style="fill: rgb(255, 255, 255);"/>
    <path d="M571.4,387.1c0,0.1,0,0.1-0.1,0.2c0,0.1-0.1,0.1-0.2,0.1c-0.1,0-0.2,0.1-0.3,0.1s-0.3,0-0.5,0c-0.2,0-0.4,0-0.6,0 s-0.3,0-0.3-0.1c-0.1,0-0.2-0.1-0.2-0.1c0-0.1-0.1-0.1-0.1-0.2v-1.1c-0.5,0.5-1,0.9-1.5,1.2s-1.1,0.4-1.8,0.4 c-0.7,0-1.3-0.1-1.8-0.4s-0.9-0.7-1.2-1.1c-0.3-0.5-0.5-1-0.7-1.7c-0.1-0.6-0.2-1.3-0.2-2c0-0.8,0.1-1.6,0.3-2.3 c0.2-0.7,0.4-1.3,0.8-1.7s0.8-0.8,1.3-1.1c0.5-0.3,1.1-0.4,1.8-0.4c0.5,0,1,0.1,1.4,0.3c0.4,0.2,0.9,0.5,1.3,1v-5.1 c0-0.1,0-0.1,0.1-0.2c0-0.1,0.1-0.1,0.2-0.1s0.2-0.1,0.4-0.1c0.2,0,0.4,0,0.7,0c0.3,0,0.5,0,0.7,0c0.2,0,0.3,0.1,0.4,0.1 s0.2,0.1,0.2,0.1c0,0.1,0.1,0.1,0.1,0.2V387.1z M568.8,380.8c-0.4-0.5-0.8-0.9-1.1-1.1c-0.4-0.3-0.7-0.4-1.1-0.4 c-0.3,0-0.6,0.1-0.9,0.3c-0.3,0.2-0.5,0.4-0.6,0.7s-0.3,0.6-0.3,1c-0.1,0.4-0.1,0.7-0.1,1.1c0,0.4,0,0.8,0.1,1.2 c0.1,0.4,0.2,0.7,0.3,1c0.1,0.3,0.3,0.5,0.6,0.7c0.2,0.2,0.5,0.3,0.9,0.3c0.2,0,0.4,0,0.5-0.1c0.2-0.1,0.4-0.1,0.5-0.3 c0.2-0.1,0.4-0.3,0.6-0.5s0.4-0.4,0.6-0.7V380.8z" style="fill: rgb(255, 255, 255);"/>
    <path d="M583.1,387.1c0,0.1,0,0.1-0.1,0.2c0,0.1-0.1,0.1-0.2,0.1c-0.1,0-0.2,0.1-0.4,0.1c-0.1,0-0.3,0-0.5,0c-0.2,0-0.4,0-0.6,0 c-0.1,0-0.3,0-0.3-0.1c-0.1,0-0.1-0.1-0.2-0.1s-0.1-0.1-0.1-0.2V386c-0.5,0.6-1.1,1-1.6,1.3c-0.5,0.3-1.1,0.4-1.7,0.4 c-0.7,0-1.2-0.1-1.6-0.3c-0.4-0.2-0.8-0.5-1.1-0.9c-0.3-0.4-0.5-0.8-0.6-1.3c-0.1-0.5-0.2-1.1-0.2-1.8v-5.8c0-0.1,0-0.1,0.1-0.2 c0-0.1,0.1-0.1,0.2-0.1c0.1,0,0.2-0.1,0.4-0.1c0.2,0,0.4,0,0.6,0c0.3,0,0.5,0,0.7,0s0.3,0,0.4,0.1c0.1,0,0.2,0.1,0.2,0.1 c0,0.1,0.1,0.1,0.1,0.2v5.4c0,0.5,0,0.9,0.1,1.1c0.1,0.3,0.2,0.5,0.3,0.7c0.1,0.2,0.3,0.3,0.5,0.4s0.4,0.2,0.7,0.2 c0.3,0,0.7-0.1,1-0.4c0.3-0.2,0.7-0.6,1.1-1.1v-6.3c0-0.1,0-0.1,0.1-0.2c0-0.1,0.1-0.1,0.2-0.1c0.1,0,0.2-0.1,0.4-0.1 c0.2,0,0.4,0,0.7,0c0.3,0,0.5,0,0.7,0c0.2,0,0.3,0,0.4,0.1c0.1,0,0.2,0.1,0.2,0.1c0,0.1,0.1,0.1,0.1,0.2V387.1z" style="fill: rgb(255, 255, 255);"/>
    <path d="M600.4,377.6c0,0.1,0,0.2,0,0.3c0,0.1-0.1,0.3-0.1,0.5l-2.5,8.6c0,0.1-0.1,0.2-0.1,0.3c-0.1,0.1-0.1,0.1-0.3,0.2 c-0.1,0-0.3,0.1-0.5,0.1s-0.5,0-0.8,0s-0.6,0-0.9,0c-0.2,0-0.4,0-0.5-0.1s-0.2-0.1-0.3-0.2c-0.1-0.1-0.1-0.2-0.1-0.3l-1.6-5.8 l0-0.1l0,0.1l-1.5,5.8c0,0.1-0.1,0.2-0.1,0.3c-0.1,0.1-0.1,0.1-0.3,0.2c-0.1,0-0.3,0.1-0.5,0.1s-0.5,0-0.9,0c-0.4,0-0.6,0-0.9,0 c-0.2,0-0.4,0-0.5-0.1c-0.1,0-0.2-0.1-0.3-0.2c-0.1-0.1-0.1-0.2-0.1-0.3l-2.5-8.6c-0.1-0.2-0.1-0.4-0.1-0.5c0-0.1,0-0.2,0-0.3 c0-0.1,0-0.1,0.1-0.2s0.1-0.1,0.2-0.1c0.1,0,0.2-0.1,0.4-0.1s0.4,0,0.7,0c0.3,0,0.5,0,0.7,0c0.2,0,0.3,0,0.4,0.1s0.2,0.1,0.2,0.1 c0,0.1,0.1,0.1,0.1,0.2l1.9,7l0,0.1l0-0.1l1.8-7c0-0.1,0.1-0.2,0.1-0.2c0-0.1,0.1-0.1,0.2-0.1s0.2-0.1,0.4-0.1s0.4,0,0.6,0 c0.3,0,0.5,0,0.6,0c0.2,0,0.3,0,0.4,0.1c0.1,0,0.2,0.1,0.2,0.1c0,0.1,0.1,0.1,0.1,0.2l1.9,7l0,0.1l0-0.1l1.8-7c0-0.1,0-0.2,0.1-0.2 c0-0.1,0.1-0.1,0.2-0.1s0.2-0.1,0.4-0.1s0.4,0,0.7,0c0.3,0,0.5,0,0.6,0s0.3,0,0.4,0.1c0.1,0,0.2,0.1,0.2,0.1 S600.4,377.5,600.4,377.6z" style="fill: rgb(255, 255, 255);"/>
    <path d="M610,387.2c0,0.1,0,0.2-0.1,0.2c-0.1,0.1-0.2,0.1-0.3,0.1c-0.2,0-0.4,0-0.7,0c-0.3,0-0.6,0-0.7,0c-0.1,0-0.2-0.1-0.3-0.1 c-0.1-0.1-0.1-0.1-0.1-0.2v-0.8c-0.4,0.4-0.8,0.7-1.3,1c-0.5,0.2-1.1,0.4-1.7,0.4c-0.5,0-1-0.1-1.4-0.2s-0.8-0.3-1.1-0.6 c-0.3-0.3-0.5-0.6-0.7-1s-0.3-0.8-0.3-1.3c0-0.6,0.1-1,0.3-1.4s0.5-0.7,1-1c0.4-0.3,1-0.5,1.6-0.6s1.4-0.2,2.2-0.2h0.9v-0.6 c0-0.3,0-0.6-0.1-0.8s-0.2-0.4-0.3-0.6c-0.1-0.1-0.3-0.3-0.6-0.3c-0.2-0.1-0.5-0.1-0.9-0.1c-0.4,0-0.8,0-1.2,0.1 c-0.4,0.1-0.7,0.2-0.9,0.3c-0.3,0.1-0.5,0.2-0.7,0.3s-0.3,0.1-0.4,0.1c-0.1,0-0.1,0-0.2-0.1c-0.1,0-0.1-0.1-0.1-0.2 s-0.1-0.2-0.1-0.3c0-0.1,0-0.3,0-0.4c0-0.2,0-0.4,0.1-0.5s0.1-0.2,0.2-0.3c0.1-0.1,0.3-0.2,0.5-0.3c0.2-0.1,0.5-0.2,0.9-0.3 c0.3-0.1,0.7-0.2,1.1-0.3c0.4-0.1,0.8-0.1,1.2-0.1c0.7,0,1.4,0.1,1.9,0.2c0.5,0.1,1,0.4,1.3,0.7c0.3,0.3,0.6,0.7,0.7,1.2 c0.2,0.5,0.2,1,0.2,1.7V387.2z M607.3,383.1h-1c-0.4,0-0.8,0-1.1,0.1s-0.6,0.2-0.7,0.3c-0.2,0.1-0.3,0.3-0.4,0.5 c-0.1,0.2-0.1,0.4-0.1,0.6c0,0.4,0.1,0.7,0.4,0.9c0.3,0.2,0.6,0.3,1.1,0.3c0.4,0,0.7-0.1,1-0.3s0.6-0.5,1-0.8V383.1z" style="fill: rgb(255, 255, 255);"/>
    <path d="M618.7,378.5c0,0.3,0,0.5,0,0.6c0,0.2,0,0.3-0.1,0.4c0,0.1-0.1,0.2-0.1,0.2c0,0-0.1,0.1-0.2,0.1c-0.1,0-0.1,0-0.2,0 c-0.1,0-0.2-0.1-0.2-0.1c-0.1,0-0.2-0.1-0.3-0.1s-0.2,0-0.4,0c-0.1,0-0.3,0-0.4,0.1s-0.3,0.2-0.5,0.3s-0.3,0.3-0.5,0.5 c-0.2,0.2-0.4,0.5-0.6,0.8v5.9c0,0.1,0,0.1-0.1,0.2c0,0.1-0.1,0.1-0.2,0.1c-0.1,0-0.2,0.1-0.4,0.1c-0.2,0-0.4,0-0.7,0 c-0.3,0-0.5,0-0.7,0c-0.2,0-0.3,0-0.4-0.1c-0.1,0-0.2-0.1-0.2-0.1s-0.1-0.1-0.1-0.2v-9.5c0-0.1,0-0.1,0.1-0.2 c0-0.1,0.1-0.1,0.2-0.1c0.1,0,0.2-0.1,0.4-0.1s0.3,0,0.5,0c0.2,0,0.4,0,0.6,0s0.3,0,0.3,0.1c0.1,0,0.1,0.1,0.2,0.1 c0,0.1,0.1,0.1,0.1,0.2v1.2c0.2-0.4,0.5-0.6,0.7-0.9c0.2-0.2,0.4-0.4,0.6-0.5c0.2-0.1,0.4-0.2,0.6-0.3s0.4-0.1,0.6-0.1 c0.1,0,0.2,0,0.3,0s0.2,0,0.3,0.1c0.1,0,0.2,0.1,0.3,0.1c0.1,0,0.1,0.1,0.2,0.1s0.1,0.1,0.1,0.1s0,0.1,0,0.2c0,0.1,0,0.2,0,0.3 S618.7,378.3,618.7,378.5z" style="fill: rgb(255, 255, 255);"/>
    <path d="M628,387.2c0,0.1,0,0.2-0.1,0.2c-0.1,0.1-0.2,0.1-0.3,0.1c-0.2,0-0.4,0-0.7,0c-0.3,0-0.6,0-0.7,0c-0.1,0-0.2-0.1-0.3-0.1 c-0.1-0.1-0.1-0.1-0.1-0.2v-0.8c-0.4,0.4-0.8,0.7-1.3,1c-0.5,0.2-1.1,0.4-1.7,0.4c-0.5,0-1-0.1-1.4-0.2s-0.8-0.3-1.1-0.6 c-0.3-0.3-0.5-0.6-0.7-1s-0.3-0.8-0.3-1.3c0-0.6,0.1-1,0.3-1.4s0.5-0.7,1-1s1-0.5,1.6-0.6s1.4-0.2,2.2-0.2h0.9v-0.6 c0-0.3,0-0.6-0.1-0.8s-0.2-0.4-0.3-0.6c-0.1-0.1-0.3-0.3-0.6-0.3c-0.2-0.1-0.5-0.1-0.9-0.1c-0.4,0-0.8,0-1.2,0.1 c-0.4,0.1-0.7,0.2-0.9,0.3c-0.3,0.1-0.5,0.2-0.7,0.3s-0.3,0.1-0.4,0.1c-0.1,0-0.1,0-0.2-0.1s-0.1-0.1-0.1-0.2s-0.1-0.2-0.1-0.3 c0-0.1,0-0.3,0-0.4c0-0.2,0-0.4,0.1-0.5c0-0.1,0.1-0.2,0.2-0.3c0.1-0.1,0.3-0.2,0.5-0.3c0.2-0.1,0.5-0.2,0.9-0.3 c0.3-0.1,0.7-0.2,1.1-0.3c0.4-0.1,0.8-0.1,1.2-0.1c0.7,0,1.4,0.1,1.9,0.2c0.5,0.1,1,0.4,1.3,0.7c0.3,0.3,0.6,0.7,0.7,1.2 c0.2,0.5,0.2,1,0.2,1.7V387.2z M625.4,383.1h-1c-0.4,0-0.8,0-1.1,0.1s-0.6,0.2-0.7,0.3c-0.2,0.1-0.3,0.3-0.4,0.5s-0.1,0.4-0.1,0.6 c0,0.4,0.1,0.7,0.4,0.9c0.3,0.2,0.6,0.3,1,0.3c0.4,0,0.7-0.1,1-0.3s0.6-0.5,1-0.8V383.1z" style="fill: rgb(255, 255, 255);"/>
    <path d="M647,382.4c0,0.8-0.1,1.6-0.4,2.3c-0.2,0.7-0.6,1.2-1.1,1.7c-0.5,0.5-1.1,0.8-1.8,1.1c-0.7,0.2-1.5,0.4-2.5,0.4 c-0.9,0-1.6-0.1-2.3-0.3c-0.7-0.2-1.3-0.5-1.7-1c-0.5-0.4-0.8-1-1.1-1.6c-0.3-0.7-0.4-1.4-0.4-2.3v-8.4c0-0.1,0-0.1,0.1-0.2 c0-0.1,0.1-0.1,0.2-0.1s0.3-0.1,0.4-0.1s0.4,0,0.7,0c0.3,0,0.5,0,0.7,0s0.3,0,0.4,0.1s0.2,0.1,0.2,0.1c0,0.1,0.1,0.1,0.1,0.2v8.1 c0,0.5,0.1,1,0.2,1.4c0.1,0.4,0.3,0.7,0.6,1c0.3,0.3,0.6,0.5,0.9,0.6s0.7,0.2,1.2,0.2c0.4,0,0.8-0.1,1.2-0.2 c0.3-0.1,0.6-0.3,0.9-0.6c0.2-0.3,0.4-0.6,0.6-1c0.1-0.4,0.2-0.8,0.2-1.3v-8.3c0-0.1,0-0.1,0.1-0.2c0-0.1,0.1-0.1,0.2-0.1 c0.1,0,0.3-0.1,0.4-0.1c0.2,0,0.4,0,0.7,0c0.3,0,0.5,0,0.7,0s0.3,0,0.4,0.1s0.2,0.1,0.2,0.1c0,0.1,0.1,0.1,0.1,0.2V382.4z" style="fill: rgb(255, 255, 255);"/>
    <path d="M655.5,386.2c0,0.3,0,0.6-0.1,0.7s-0.1,0.3-0.2,0.4c-0.1,0.1-0.2,0.1-0.3,0.2s-0.3,0.1-0.4,0.1c-0.2,0-0.3,0.1-0.5,0.1 s-0.4,0-0.6,0c-0.5,0-1-0.1-1.4-0.2s-0.7-0.3-1-0.6s-0.4-0.6-0.6-1.1c-0.1-0.4-0.2-0.9-0.2-1.5v-4.9h-1.1c-0.1,0-0.2-0.1-0.3-0.3 s-0.1-0.4-0.1-0.8c0-0.2,0-0.4,0-0.5c0-0.1,0-0.3,0.1-0.3c0-0.1,0.1-0.1,0.1-0.2c0.1,0,0.1-0.1,0.2-0.1h1.1v-2.1 c0-0.1,0-0.1,0.1-0.2c0-0.1,0.1-0.1,0.2-0.1c0.1,0,0.2-0.1,0.4-0.1c0.2,0,0.4,0,0.6,0c0.3,0,0.5,0,0.7,0c0.2,0,0.3,0,0.4,0.1 s0.2,0.1,0.2,0.1c0,0.1,0.1,0.1,0.1,0.2v2.1h2.1c0.1,0,0.1,0,0.2,0.1c0.1,0,0.1,0.1,0.1,0.2c0,0.1,0.1,0.2,0.1,0.3 c0,0.1,0,0.3,0,0.5c0,0.4,0,0.7-0.1,0.8c-0.1,0.2-0.2,0.3-0.3,0.3H653v4.5c0,0.5,0.1,0.9,0.2,1.2c0.2,0.3,0.5,0.4,0.9,0.4 c0.1,0,0.3,0,0.4,0c0.1,0,0.2-0.1,0.3-0.1c0.1,0,0.2-0.1,0.2-0.1s0.1,0,0.2,0c0,0,0.1,0,0.1,0s0.1,0.1,0.1,0.1c0,0.1,0,0.2,0.1,0.3 C655.5,385.8,655.5,386,655.5,386.2z" style="fill: rgb(255, 255, 255);"/>
    <path d="M666.5,387.1c0,0.1,0,0.1-0.1,0.2s-0.1,0.1-0.2,0.1c-0.1,0-0.2,0.1-0.4,0.1c-0.2,0-0.4,0-0.6,0c-0.3,0-0.5,0-0.7,0 c-0.2,0-0.3,0-0.4-0.1s-0.2-0.1-0.2-0.1s-0.1-0.1-0.1-0.2v-5.4c0-0.5,0-0.8-0.1-1.1c-0.1-0.3-0.2-0.5-0.3-0.7 c-0.1-0.2-0.3-0.3-0.5-0.4c-0.2-0.1-0.4-0.2-0.7-0.2c-0.3,0-0.7,0.1-1,0.4c-0.3,0.2-0.7,0.6-1.1,1.1v6.3c0,0.1,0,0.1-0.1,0.2 c0,0.1-0.1,0.1-0.2,0.1c-0.1,0-0.2,0.1-0.4,0.1c-0.2,0-0.4,0-0.7,0c-0.3,0-0.5,0-0.7,0c-0.2,0-0.3,0-0.4-0.1 c-0.1,0-0.2-0.1-0.2-0.1s-0.1-0.1-0.1-0.2v-14c0-0.1,0-0.1,0.1-0.2c0-0.1,0.1-0.1,0.2-0.1c0.1,0,0.2-0.1,0.4-0.1c0.2,0,0.4,0,0.7,0 c0.3,0,0.5,0,0.7,0c0.2,0,0.3,0.1,0.4,0.1c0.1,0,0.2,0.1,0.2,0.1c0,0.1,0.1,0.1,0.1,0.2v5.3c0.5-0.5,0.9-0.8,1.4-1 c0.5-0.2,1-0.3,1.5-0.3c0.6,0,1.2,0.1,1.6,0.3c0.4,0.2,0.8,0.5,1.1,0.9c0.3,0.4,0.5,0.8,0.6,1.3c0.1,0.5,0.2,1.1,0.2,1.8V387.1z" style="fill: rgb(255, 255, 255);"/>
    <path d="M675.9,384.5c0,0.5-0.1,1-0.3,1.4c-0.2,0.4-0.5,0.8-0.9,1c-0.4,0.3-0.8,0.5-1.3,0.6c-0.5,0.1-1.1,0.2-1.6,0.2 c-0.4,0-0.7,0-1-0.1c-0.3-0.1-0.6-0.1-0.9-0.2c-0.3-0.1-0.5-0.2-0.6-0.3c-0.2-0.1-0.3-0.2-0.4-0.2c-0.1-0.1-0.1-0.2-0.2-0.4 c0-0.2-0.1-0.4-0.1-0.7c0-0.2,0-0.4,0-0.5c0-0.1,0-0.2,0.1-0.3s0.1-0.1,0.1-0.1c0,0,0.1,0,0.2,0c0.1,0,0.2,0,0.3,0.1 c0.2,0.1,0.3,0.2,0.6,0.3s0.5,0.2,0.8,0.3c0.3,0.1,0.6,0.1,1,0.1c0.2,0,0.5,0,0.6-0.1c0.2,0,0.4-0.1,0.5-0.2s0.2-0.2,0.3-0.4 s0.1-0.3,0.1-0.5c0-0.2-0.1-0.4-0.2-0.5s-0.3-0.3-0.5-0.4s-0.5-0.2-0.7-0.3s-0.6-0.2-0.8-0.3c-0.3-0.1-0.6-0.3-0.8-0.4 s-0.5-0.3-0.7-0.6s-0.4-0.5-0.5-0.8c-0.1-0.3-0.2-0.7-0.2-1.2c0-0.5,0.1-0.9,0.3-1.3c0.2-0.4,0.4-0.7,0.8-1s0.7-0.5,1.2-0.6 c0.5-0.1,1-0.2,1.6-0.2c0.3,0,0.6,0,0.9,0.1c0.3,0,0.5,0.1,0.8,0.2c0.2,0.1,0.4,0.1,0.6,0.2s0.3,0.1,0.3,0.2s0.1,0.1,0.1,0.2 c0,0.1,0,0.1,0.1,0.2c0,0.1,0,0.2,0,0.3c0,0.1,0,0.2,0,0.4c0,0.2,0,0.3,0,0.5c0,0.1,0,0.2-0.1,0.3c0,0.1-0.1,0.1-0.1,0.1 c0,0-0.1,0-0.1,0c-0.1,0-0.2,0-0.3-0.1c-0.1-0.1-0.3-0.2-0.5-0.2c-0.2-0.1-0.4-0.2-0.7-0.2c-0.3-0.1-0.6-0.1-0.9-0.1 c-0.2,0-0.5,0-0.6,0.1s-0.3,0.1-0.4,0.2c-0.1,0.1-0.2,0.2-0.3,0.3c-0.1,0.1-0.1,0.3-0.1,0.4c0,0.2,0.1,0.4,0.2,0.6 c0.1,0.1,0.3,0.3,0.5,0.4c0.2,0.1,0.5,0.2,0.8,0.3c0.3,0.1,0.6,0.2,0.9,0.3c0.3,0.1,0.6,0.3,0.9,0.4c0.3,0.2,0.5,0.3,0.8,0.6 c0.2,0.2,0.4,0.5,0.5,0.8C675.8,383.6,675.9,384,675.9,384.5z" style="fill: rgb(255, 255, 255);"/>
    <path d="M686,387.2c0,0.1,0,0.2-0.1,0.2c-0.1,0.1-0.2,0.1-0.3,0.1c-0.2,0-0.4,0-0.7,0c-0.3,0-0.6,0-0.7,0c-0.1,0-0.2-0.1-0.3-0.1 c-0.1-0.1-0.1-0.1-0.1-0.2v-0.8c-0.4,0.4-0.8,0.7-1.3,1c-0.5,0.2-1.1,0.4-1.7,0.4c-0.5,0-1-0.1-1.4-0.2s-0.8-0.3-1.1-0.6 c-0.3-0.3-0.5-0.6-0.7-1s-0.3-0.8-0.3-1.3c0-0.6,0.1-1,0.3-1.4s0.5-0.7,1-1s1-0.5,1.6-0.6s1.4-0.2,2.2-0.2h0.9v-0.6 c0-0.3,0-0.6-0.1-0.8s-0.2-0.4-0.3-0.6c-0.1-0.1-0.3-0.3-0.6-0.3c-0.2-0.1-0.5-0.1-0.9-0.1c-0.4,0-0.8,0-1.2,0.1 c-0.4,0.1-0.7,0.2-0.9,0.3c-0.3,0.1-0.5,0.2-0.7,0.3s-0.3,0.1-0.4,0.1c-0.1,0-0.1,0-0.2-0.1s-0.1-0.1-0.1-0.2s-0.1-0.2-0.1-0.3 c0-0.1,0-0.3,0-0.4c0-0.2,0-0.4,0.1-0.5c0-0.1,0.1-0.2,0.2-0.3c0.1-0.1,0.3-0.2,0.5-0.3c0.2-0.1,0.5-0.2,0.9-0.3 c0.3-0.1,0.7-0.2,1.1-0.3c0.4-0.1,0.8-0.1,1.2-0.1c0.7,0,1.4,0.1,1.9,0.2c0.5,0.1,1,0.4,1.3,0.7c0.3,0.3,0.6,0.7,0.7,1.2 c0.2,0.5,0.2,1,0.2,1.7V387.2z M683.3,383.1h-1c-0.4,0-0.8,0-1.1,0.1s-0.6,0.2-0.7,0.3c-0.2,0.1-0.3,0.3-0.4,0.5s-0.1,0.4-0.1,0.6 c0,0.4,0.1,0.7,0.4,0.9c0.3,0.2,0.6,0.3,1,0.3c0.4,0,0.7-0.1,1-0.3s0.6-0.5,1-0.8V383.1z" style="fill: rgb(255, 255, 255);"/>
    <path d="M694.8,378.5c0,0.3,0,0.5,0,0.6c0,0.2,0,0.3-0.1,0.4c0,0.1-0.1,0.2-0.1,0.2c0,0-0.1,0.1-0.2,0.1c-0.1,0-0.1,0-0.2,0 c-0.1,0-0.2-0.1-0.2-0.1c-0.1,0-0.2-0.1-0.3-0.1s-0.2,0-0.4,0c-0.1,0-0.3,0-0.4,0.1s-0.3,0.2-0.5,0.3s-0.3,0.3-0.5,0.5 c-0.2,0.2-0.4,0.5-0.6,0.8v5.9c0,0.1,0,0.1-0.1,0.2c0,0.1-0.1,0.1-0.2,0.1c-0.1,0-0.2,0.1-0.4,0.1c-0.2,0-0.4,0-0.7,0 c-0.3,0-0.5,0-0.7,0c-0.2,0-0.3,0-0.4-0.1c-0.1,0-0.2-0.1-0.2-0.1s-0.1-0.1-0.1-0.2v-9.5c0-0.1,0-0.1,0.1-0.2 c0-0.1,0.1-0.1,0.2-0.1c0.1,0,0.2-0.1,0.4-0.1s0.3,0,0.5,0c0.2,0,0.4,0,0.6,0s0.3,0,0.3,0.1c0.1,0,0.1,0.1,0.2,0.1 c0,0.1,0.1,0.1,0.1,0.2v1.2c0.2-0.4,0.5-0.6,0.7-0.9c0.2-0.2,0.4-0.4,0.6-0.5c0.2-0.1,0.4-0.2,0.6-0.3s0.4-0.1,0.6-0.1 c0.1,0,0.2,0,0.3,0s0.2,0,0.3,0.1c0.1,0,0.2,0.1,0.3,0.1c0.1,0,0.1,0.1,0.2,0.1s0.1,0.1,0.1,0.1s0,0.1,0,0.2c0,0.1,0,0.2,0,0.3 S694.8,378.3,694.8,378.5z" style="fill: rgb(255, 255, 255);"/>
    <path d="M704,387.2c0,0.1,0,0.2-0.1,0.2c-0.1,0.1-0.2,0.1-0.3,0.1c-0.2,0-0.4,0-0.7,0c-0.3,0-0.6,0-0.7,0c-0.1,0-0.2-0.1-0.3-0.1 c-0.1-0.1-0.1-0.1-0.1-0.2v-0.8c-0.4,0.4-0.8,0.7-1.3,1c-0.5,0.2-1.1,0.4-1.7,0.4c-0.5,0-1-0.1-1.4-0.2s-0.8-0.3-1.1-0.6 c-0.3-0.3-0.5-0.6-0.7-1s-0.3-0.8-0.3-1.3c0-0.6,0.1-1,0.3-1.4s0.5-0.7,1-1s1-0.5,1.6-0.6s1.4-0.2,2.2-0.2h0.9v-0.6 c0-0.3,0-0.6-0.1-0.8s-0.2-0.4-0.3-0.6c-0.1-0.1-0.3-0.3-0.6-0.3c-0.2-0.1-0.5-0.1-0.9-0.1c-0.4,0-0.8,0-1.2,0.1 c-0.4,0.1-0.7,0.2-0.9,0.3c-0.3,0.1-0.5,0.2-0.7,0.3s-0.3,0.1-0.4,0.1c-0.1,0-0.1,0-0.2-0.1s-0.1-0.1-0.1-0.2s-0.1-0.2-0.1-0.3 c0-0.1,0-0.3,0-0.4c0-0.2,0-0.4,0.1-0.5c0-0.1,0.1-0.2,0.2-0.3c0.1-0.1,0.3-0.2,0.5-0.3c0.2-0.1,0.5-0.2,0.9-0.3 c0.3-0.1,0.7-0.2,1.1-0.3c0.4-0.1,0.8-0.1,1.2-0.1c0.7,0,1.4,0.1,1.9,0.2c0.5,0.1,1,0.4,1.3,0.7c0.3,0.3,0.6,0.7,0.7,1.2 c0.2,0.5,0.2,1,0.2,1.7V387.2z M701.4,383.1h-1c-0.4,0-0.8,0-1.1,0.1s-0.6,0.2-0.7,0.3c-0.2,0.1-0.3,0.3-0.4,0.5s-0.1,0.4-0.1,0.6 c0,0.4,0.1,0.7,0.4,0.9c0.3,0.2,0.6,0.3,1,0.3c0.4,0,0.7-0.1,1-0.3s0.6-0.5,1-0.8V383.1z" style="fill: rgb(255, 255, 255);"/>
  </g>
  <text style="fill: rgb(51, 51, 51); font-family: Lato; font-size: 16px; font-weight: 700; letter-spacing: 1.3px; text-transform: uppercase; word-spacing: 1.3px; white-space: pre;" x="508.212" y="214.416">Ameesha Heshan</text>
</svg>