<?xml version="1.0" encoding="utf-8"?>
<svg viewBox="0 0 500 500" xmlns="http://www.w3.org/2000/svg" xmlns:bx="https://boxy-svg.com">
  <defs>
    <style bx:fonts="Lato">@import url(https://fonts.googleapis.com/css2?family=Lato%3Aital%2Cwght%400%2C100%3B0%2C300%3B0%2C400%3B0%2C700%3B0%2C900%3B1%2C100%3B1%2C300%3B1%2C400%3B1%2C700%3B1%2C900&amp;display=swap);</style>
  </defs>
  <title>dev_productivity</title>
  <circle class="st0" cx="536.9" cy="195.1" r="73.5" style="fill: rgb(160, 97, 106);" transform="matrix(1, 0, 0, 1, 69.939854, -171.272523)"/>
  <path class="st0" d="M482,231.8c0,0,13.9,104.4-7.5,116.2s126.8,12.8,126.8,12.8s-33-90.6-18.1-118.3L482,231.8z" style="fill: rgb(160, 97, 106);" transform="matrix(1, 0, 0, 1, 69.939854, -171.272523)"/>
  <path class="st1" d="M709.6,361.3l-12.3,56.1l-26,118.7l-0.8,6.5l-9,75.3l-6,50l-4,33.6c-24.4,12.5-42,21.2-42,21.2s-1.5-7.6-4-17.4 c-17.1,5.1-48.8,13.6-75.6,15.3c9.8,10.9,14.3,21.1,8.2,28.7c-18.4,22.8-94.3-24.9-120.8-42.7c-0.6,4.3-0.9,8.6-0.7,12.9l-20.3-15.6 l2-35.9l3.4-60.8l4.3-76.3c-1.3-3.3-2.5-6.6-3.4-10c-6.2-22.1-13.8-66.3-19.6-103.3c-4.7-29.8-8.2-55-8.9-60.4 c-0.1-0.7-0.1-1.1-0.1-1.1l112.4-49.7c8,18.5,45.3,24.1,45.3,24.1c30.9-2.1,55.1-18.4,55.1-18.4L709.6,361.3z" style="fill: rgb(208, 205, 225);" transform="matrix(1, 0, 0, 1, 69.939854, -171.272523)"/>
  <path class="st0" d="M617.9,701.3c0,0-4.8,1.6-12.5,3.9c-17.1,5.1-48.8,13.6-75.6,15.3c-23.1,1.5-42.6-2.1-46.2-17.2 c-1.5-6.5,0.6-11.8,5.4-16.2c14.1-13.1,51-17.8,80.3-19.4c8.3-0.5,15.9-0.7,22.3-0.7c10.8-0.1,17.9,0.1,17.9,0.1l0.2,0.7 L617.9,701.3z" style="fill: rgb(160, 97, 106);" transform="matrix(1, 0, 0, 1, 69.939854, -171.272523)"/>
  <path class="st2" d="M475.7,125.5L462,120c0,0,28.7-31.7,68.7-28.9l-11.2-12.4c0,0,27.5-11,52.5,17.9c13.1,15.2,28.3,33,37.8,53.2 h14.7l-6.1,13.5l21.5,13.5l-22.1-2.4c1.3,7.4,1.5,15,0.6,22.4c-0.9,7.5-4.8,14.3-10.6,19l0,0c0,0-17.1-35.3-17.1-40.8v13.8 c0,0-13.7-12.4-13.7-20.6l-7.5,9.6l-3.7-15.1l-46.2,15.1l7.5-12.4l-28.7,4.1l11.2-15.1c0,0-32.5,17.9-33.7,33 c-1.2,15.1-10.8,29.5-10.8,29.5S439.5,146.2,475.7,125.5z" style="fill: rgb(47, 46, 65);" transform="matrix(1, 0, 0, 1, 69.939854, -171.272523)"/>
  <path class="st1" d="M789.5,619.2c-7.5,8.1-26,20.3-48.5,33.6c-8.4,4.9-17.3,10-26.4,15c-21.7,12-44.4,24-63.1,33.6 c-24.4,12.5-42,21.2-42,21.2s-1.5-7.6-4-17.4c-3.3-13-8.2-29.9-13.4-37.4c-0.2-0.3-0.4-0.5-0.5-0.7c-1.5-2-3-3.1-4.5-3.1l74.4-46.1 l32.2-19.9l-23.2-55.3l-29.1-69.4l17.5-55.8l17.6-56.1h33c0,0,10.9,23.9,24.9,57.2c2.1,5,4.3,10.2,6.5,15.5 C769.7,504,805.6,601.8,789.5,619.2z" style="fill: rgb(208, 205, 225);" transform="matrix(1, 0, 0, 1, 69.939854, -171.272523)"/>
  <path class="st0" d="M538,749.3c-18.4,22.8-94.3-24.9-120.8-42.7c-5.8-3.9-9.2-6.3-9.2-6.3l24.3-32.4l7.7-10.3c0,0,6.9,3.7,17,9.6 c0.4,0.2,0.7,0.4,1.1,0.7c8.8,5.2,19.8,11.9,30.9,19.4c15.3,10.4,30.8,22.2,40.8,33.3C539.6,731.5,544.1,741.7,538,749.3z" style="fill: rgb(160, 97, 106);" transform="matrix(1, 0, 0, 1, 69.939854, -171.272523)"/>
  <path class="st1" d="M457,667.2c-2.7,0-5.4,0.2-8.1,0.7c-23,4-29.8,24.8-31.7,38.7c-0.6,4.3-0.9,8.6-0.7,12.9l-20.3-15.6l-7.4-5.7 c-17.8-6.2-33.7-17.2-47.4-30.3c-11.9-11.5-22.6-24.2-32-37.9c-9.3-13.5-17.5-27.7-24.7-42.4c-4.1-8.3-4.2-18-0.4-26.5l25.1-56 l36.8-81.9c0.3-1.9,0.6-3.9,0.9-5.7c7.3-41.8,26.8-60.4,26.8-60.4h14.9l10,60.4l12.4,75l-8.7,28.3l-20.1,65.4l19.2,20.8L457,667.2z" style="fill: rgb(208, 205, 225);" transform="matrix(1, 0, 0, 1, 69.939854, -171.272523)"/>
  <path class="st3" d="M473.9,492.5l12.8,14.9c4.7-0.9,9.7-2,14.8-3.2l-3.7-11.7l9,10.5c54-13.3,120.9-39.1,120.9-39.1 s-72.3,5.3-126.2-6.5c-23.9-5.2-48.4,6.6-58.2,29c-5.7,13-4.8,24.3,15.4,24.3c6.8-0.1,13.6-0.8,20.4-1.9L473.9,492.5z" style="fill: rgb(21, 194, 203);" transform="matrix(1, 0, 0, 1, 69.939854, -171.272523)"/>
  <path class="st4" d="M764.7,737.1v6.1c0,1.7-0.3,3.3-0.9,4.9c-0.3,0.7-0.6,1.4-1,2c-2.4,4.1-6.8,6.6-11.5,6.6H304.7 c-4.7,0-9.1-2.5-11.5-6.6c-0.4-0.6-0.7-1.3-1-2c-0.6-1.6-0.9-3.2-0.9-4.9v-6.1c0-7.4,6-13.4,13.4-13.4c0,0,0,0,0,0h25.7v-2.8 c0-0.3,0.2-0.6,0.6-0.6c0,0,0,0,0,0h13.4c0.3,0,0.6,0.2,0.6,0.6c0,0,0,0,0,0v2.8h8.4v-2.8c0-0.3,0.2-0.6,0.6-0.6c0,0,0,0,0,0h13.4 c0.3,0,0.6,0.2,0.6,0.6c0,0,0,0,0,0v2.8h8.4v-2.8c0-0.3,0.2-0.6,0.6-0.6c0,0,0,0,0,0h13.4c0.3,0,0.6,0.2,0.6,0.6c0,0,0,0,0,0v2.8 h8.4v-2.8c0-0.3,0.2-0.6,0.6-0.6c0,0,0,0,0,0h13.4c0.3,0,0.6,0.2,0.6,0.6c0,0,0,0,0,0v2.8h8.4v-2.8c0-0.3,0.2-0.6,0.6-0.6 c0,0,0,0,0,0h13.4c0.3,0,0.6,0.2,0.6,0.6c0,0,0,0,0,0v2.8h8.4v-2.8c0-0.3,0.2-0.6,0.6-0.6c0,0,0,0,0,0h13.4c0.3,0,0.6,0.2,0.6,0.6 c0,0,0,0,0,0v2.8h8.4v-2.8c0-0.3,0.2-0.6,0.6-0.6c0,0,0,0,0,0h105.2c0.3,0,0.6,0.2,0.6,0.6c0,0,0,0,0,0v2.8h8.4v-2.8 c0-0.3,0.2-0.6,0.6-0.6c0,0,0,0,0,0h13.4c0.3,0,0.6,0.3,0.6,0.6v2.8h8.4v-2.8c0-0.3,0.2-0.6,0.6-0.6c0,0,0,0,0,0h13.4 c0.3,0,0.6,0.2,0.6,0.6c0,0,0,0,0,0v2.8h8.4v-2.8c0-0.3,0.2-0.6,0.6-0.6c0,0,0,0,0,0h13.4c0.3,0,0.6,0.2,0.6,0.6c0,0,0,0,0,0v2.8 h8.4v-2.8c0-0.3,0.2-0.6,0.6-0.6c0,0,0,0,0,0h13.4c0.3,0,0.6,0.3,0.5,0.6v2.8h8.4v-2.8c0-0.3,0.2-0.6,0.6-0.6c0,0,0,0,0,0h13.4 c0.3,0,0.6,0.2,0.6,0.6c0,0,0,0,0,0v2.8h8.4v-2.8c0-0.3,0.2-0.6,0.6-0.6c0,0,0,0,0,0h13.4c0.3,0,0.6,0.2,0.6,0.6c0,0,0,0,0,0v2.8 h39.2C758.6,723.6,764.6,729.6,764.7,737.1C764.7,737,764.7,737.1,764.7,737.1z" style="fill: rgb(63, 61, 86);" transform="matrix(1, 0, 0, 1, 69.939854, -171.272523)"/>
  <rect x="161.5" y="748" class="st4" width="733" height="2" style="fill: rgb(63, 61, 86);" transform="matrix(1, 0, 0, 1, 69.939854, -171.272523)"/>
  <path class="st4" d="M728.7,481.4H562.3V478h-75.5v3.4H319.7c-6.2,0-11.3,5-11.3,11.3l0,0v227.9c0,6.2,5,11.3,11.3,11.3h409 c6.2,0,11.3-5,11.3-11.3V492.7C740,486.5,734.9,481.4,728.7,481.4z" style="fill: rgb(63, 61, 86);" transform="matrix(1, 0, 0, 1, 69.939854, -171.272523)"/>
  <g transform="matrix(1, 0, 0, 1, 72.939857, -172.272522)">
    <circle class="st5" cx="528.5" cy="570" r="25" style="fill: none; stroke: rgb(208, 205, 225); stroke-miterlimit: 10; stroke-width: 2px;"/>
    <circle class="st1" cx="520.5" cy="579" r="25" style="fill: rgb(208, 205, 225);"/>
  </g>
  <rect x="181.4" y="737.9" class="st1" width="28" height="28" style="fill: rgb(208, 205, 225);" transform="matrix(1, 0, 0, 1, 69.939854, -171.272523)"/>
  <path class="st4" d="M192.4,715.9v34h34v-34H192.4z M225,748.4h-31v-31h31V748.4z" style="fill: rgb(63, 61, 86);" transform="matrix(1, 0, 0, 1, 69.939854, -171.272523)"/>
  <rect x="829.4" y="737.9" class="st1" width="28" height="28" style="fill: rgb(208, 205, 225);" transform="matrix(1, 0, 0, 1, 69.939854, -171.272523)"/>
  <path class="st4" d="M840.5,715.9v34h34v-34H840.5z M873,748.4h-31v-31h31V748.4z" style="fill: rgb(63, 61, 86);" transform="matrix(1, 0, 0, 1, 69.939854, -171.272523)"/>
  <circle class="st3" cx="195.6" cy="227.4" r="79.3" style="fill: rgb(21, 194, 203);" transform="matrix(1, 0, 0, 1, 69.939854, -171.272523)"/>
  <path class="st4" d="M223.2,133.2c-7.2-0.9-14.5-0.9-21.6,0c-32.7,4.3-59.9,27.2-69.6,58.7c-2.2,7-3.4,14.3-3.7,21.7 c0,1-0.1,2.1-0.1,3.1c0,46.5,37.7,84.1,84.1,84.1c1.8,0,3.6-0.1,5.3-0.2c4.1-0.3,8.3-0.8,12.3-1.7c45.4-9.8,74.4-54.5,64.6-100 C287.2,164.1,258.6,137.7,223.2,133.2L223.2,133.2z M238.7,294L238.7,294c-6.8,2.3-13.8,3.7-21,4.2c-1.8,0.1-3.6,0.2-5.3,0.2 c-45.1-0.1-81.7-36.6-81.7-81.7c0-1,0-2.1,0.1-3.1c1.7-43.9,37.8-78.6,81.7-78.7c45.1,0,81.7,36.6,81.7,81.8 C294.2,251.6,271.9,282.7,238.7,294L238.7,294z" style="fill: rgb(63, 61, 86);" transform="matrix(1, 0, 0, 1, 69.939854, -171.272523)"/>
  <rect x="211.2" y="139.7" class="st4" width="2.4" height="16.8" style="fill: rgb(63, 61, 86);" transform="matrix(1, 0, 0, 1, 69.939854, -171.272523)"/>
  <rect x="162.8" y="159.8" transform="matrix(-0.7071, 0.7071, -0.7071, -0.7071, 468.747349, -0.125429)" class="st4" width="2.4" height="16.8" style="fill: rgb(63, 61, 86);"/>
  <rect x="135.5" y="215.4" class="st4" width="16.8" height="2.4" style="fill: rgb(63, 61, 86);" transform="matrix(1, 0, 0, 1, 69.939854, -171.272523)"/>
  <rect x="162.8" y="256.7" transform="matrix(0.7071, 0.7071, -0.7071, 0.7071, 305.396962, -209.570222)" class="st4" width="2.4" height="16.8" style="fill: rgb(63, 61, 86);"/>
  <rect x="259.7" y="159.8" transform="matrix(0.7071, 0.7071, -0.7071, 0.7071, 265.258152, -306.474031)" class="st4" width="2.4" height="16.8" style="fill: rgb(63, 61, 86);"/>
  <rect x="272.5" y="215.4" class="st4" width="16.8" height="2.4" style="fill: rgb(63, 61, 86);" transform="matrix(1, 0, 0, 1, 69.939854, -171.272523)"/>
  <rect x="259.7" y="256.7" transform="matrix(-0.7071, 0.7071, -0.7071, -0.7071, 702.693638, 96.778288)" class="st4" width="2.4" height="16.8" style="fill: rgb(63, 61, 86);"/>
  <rect x="211.2" y="276.7" class="st4" width="2.4" height="16.8" style="fill: rgb(63, 61, 86);" transform="matrix(1, 0, 0, 1, 69.939854, -171.272523)"/>
  <path class="st4" d="M216,211.8c-2.1-1.6-5.1-1.6-7.2,0c-0.7,0.5-1.3,1.2-1.7,2c-1.5,2.9-0.4,6.6,2.5,8.1s6.6,0.4,8.1-2.5 C219.1,216.8,218.4,213.6,216,211.8L216,211.8z M212.4,220.2c-2,0-3.6-1.6-3.6-3.6c0-0.7,0.2-1.4,0.6-2c1.1-1.6,3.4-2,5-0.9 c1.6,1.1,2,3.4,0.9,5C214.7,219.6,213.6,220.2,212.4,220.2L212.4,220.2z" style="fill: rgb(63, 61, 86);" transform="matrix(1, 0, 0, 1, 69.939854, -171.272523)"/>
  <rect x="201.6" y="112" class="st4" width="21.6" height="21.6" style="fill: rgb(63, 61, 86);" transform="matrix(1, 0, 0, 1, 69.939854, -171.272523)"/>
  <ellipse class="st4" cx="212.4" cy="105.4" rx="28.9" ry="10.2" style="fill: rgb(63, 61, 86);" transform="matrix(1, 0, 0, 1, 69.939854, -171.272523)"/>
  <rect x="208.8" y="170.9" class="st4" width="7.2" height="40.9" style="fill: rgb(63, 61, 86);" transform="matrix(1, 0, 0, 1, 69.939854, -171.272523)"/>
  <rect x="101" y="297.1" class="st4" width="226" height="2.4" style="fill: rgb(63, 61, 86);" transform="matrix(1, 0, 0, 1, 69.939854, -171.272523)"/>
  <path class="st1" d="M251.6,676.4c0.9,32-17.7,43.7-41.2,44.3c-0.5,0-1.1,0-1.6,0c-1.1,0-2.2,0-3.2-0.1c-21.2-0.9-38-12.1-38.8-41.8 c-0.9-30.7,37.3-70.7,40.1-73.7l0,0c0.1-0.1,0.2-0.2,0.2-0.2S250.7,644.5,251.6,676.4z" style="fill: rgb(208, 205, 225);" transform="matrix(1, 0, 0, 1, 69.939854, -171.272523)"/>
  <path class="st4" d="M208.7,715.9l14.9-22.1l-14.9,24.5l0,2.5c-1.1,0-2.2,0-3.2-0.1l0.7-32l0-0.2l0,0l0.1-3l-16.3-23.7l16.3,21.4 l0.1,0.6l0.6-24.2l-14.1-24.5l14.1,20.3l-0.1-50.1l0-0.2l0,0.2l0.9,39.5l12.8-16l-12.8,19.4l0.3,21.6l11.8-21.1l-11.8,24.3l0.2,12 l17.2-29.4l-17.1,33.6L208.7,715.9z" style="fill: rgb(63, 61, 86);" transform="matrix(1, 0, 0, 1, 69.939854, -171.272523)"/>
  <path class="st1" d="M899.6,676.4c0.9,32-17.7,43.7-41.2,44.3c-0.5,0-1.1,0-1.6,0c-1.1,0-2.2,0-3.2-0.1c-21.2-0.9-38-12.1-38.8-41.8 c-0.9-30.7,37.3-70.7,40.1-73.7l0,0c0.1-0.1,0.2-0.2,0.2-0.2S898.7,644.5,899.6,676.4z" style="fill: rgb(208, 205, 225);" transform="matrix(1, 0, 0, 1, 69.939854, -171.272523)"/>
  <path class="st4" d="M856.7,715.9l14.9-22.1l-14.9,24.5l0,2.5c-1.1,0-2.2,0-3.2-0.1l0.7-32l0-0.2l0,0l0.1-3l-16.3-23.7l16.3,21.4 l0.1,0.6l0.6-24.2l-14.1-24.5l14.1,20.3l-0.1-50.1l0-0.2l0,0.2l0.9,39.5l12.8-16l-12.8,19.4l0.3,21.6l11.8-21.1l-11.8,24.3l0.2,12 l17.2-29.4l-17.1,33.6L856.7,715.9z" style="fill: rgb(63, 61, 86);" transform="matrix(1, 0, 0, 1, 69.939854, -171.272523)"/>
  <g transform="matrix(1, 0, 0, 1, 69.939854, -171.272523)">
    <path class="st6" d="M326.4,503.5c0-1.5-0.2-2.5-0.7-2.9c-0.5-0.5-1.6-0.8-3.2-0.9v-2.3h16.1v2.3c-1.6,0.1-2.7,0.4-3.2,0.9 c-0.5,0.5-0.7,1.4-0.7,3v21.1c0,1.5,0.2,2.5,0.7,3c0.5,0.5,1.5,0.8,3.2,0.9v2.3h-16.1v-2.3c1.7-0.1,2.7-0.5,3.2-0.9 s0.7-1.4,0.7-2.9V503.5z" style="fill: rgb(235, 255, 212);"/>
    <path class="st6" d="M365,525.5c0,1.2,0.2,2,0.5,2.4c0.3,0.4,1,0.7,1.9,0.9v2.1h-11.9v-2.1c0.9-0.1,1.6-0.4,1.9-0.8 c0.3-0.4,0.5-1.2,0.5-2.4v-10.3c0-1.8-0.2-3.1-0.6-3.8c-0.4-0.7-1-1-1.9-1c-1.3,0-2.4,0.7-3.2,2s-1.2,3.2-1.2,5.6v7.5 c0,1.2,0.2,2,0.5,2.4c0.3,0.4,1,0.7,1.9,0.8v2.1h-11.9v-2.1c1-0.1,1.6-0.4,1.9-0.8c0.3-0.4,0.5-1.2,0.5-2.4v-13.7 c0-1.1-0.2-1.8-0.5-2.2c-0.3-0.3-1-0.5-2-0.6v-2.2c1.7-0.1,3.4-0.2,4.8-0.3c1.5-0.1,2.9-0.3,4.2-0.4v5.5c1.2-1.7,2.5-3,3.9-3.8 c1.4-0.8,2.8-1.3,4.4-1.3c2.2,0,3.8,0.8,4.8,2.3c1,1.5,1.5,4.1,1.5,7.7V525.5z" style="fill: rgb(235, 255, 212);"/>
    <path class="st6" d="M382.2,496.5c1.9,0,3.8-0.1,5.7-0.3c1.9-0.2,3.8-0.4,5.6-0.8v30.5c0,1.1,0.2,1.8,0.5,2.2c0.3,0.3,1,0.5,2,0.5 h0.6v2.2c-1.7,0-3.3,0.1-4.8,0.3c-1.5,0.2-2.9,0.4-4.3,0.8v-5.5c-1,1.8-2.1,3.1-3.3,3.9c-1.2,0.9-2.7,1.3-4.3,1.3 c-3,0-5.4-1.2-7.2-3.5c-1.8-2.3-2.8-5.4-2.8-9.2c0-3.8,0.9-6.8,2.8-9.2c1.9-2.4,4.3-3.5,7.2-3.5c1.5,0,2.9,0.3,4,0.9 c1.1,0.6,2,1.5,2.5,2.6v-8.4c0-1.1-0.3-1.8-0.8-2.2c-0.5-0.4-1.5-0.6-3-0.6h-0.4L382.2,496.5z M382,528.7c1.4,0,2.4-0.8,3.1-2.5 c0.7-1.7,1.1-4.1,1.1-7.3c0-3.2-0.4-5.7-1.1-7.3c-0.7-1.7-1.8-2.5-3.1-2.5c-1.4,0-2.4,0.8-3.2,2.5c-0.7,1.7-1.1,4.1-1.1,7.3 c0,3.2,0.4,5.6,1.1,7.3C379.6,527.9,380.6,528.7,382,528.7z" style="fill: rgb(235, 255, 212);"/>
    <path class="st6" d="M414.5,511.8c0-1.1-0.2-1.9-0.5-2.2c-0.3-0.3-1-0.5-2.1-0.5v-2.2c1.8-0.1,3.5-0.2,5.1-0.3 c1.6-0.1,3.1-0.3,4.6-0.4v19.7c0,1.1,0.2,1.9,0.5,2.2c0.3,0.3,1,0.5,2.1,0.5l0,2.2c-1.8,0.1-3.4,0.2-4.9,0.3 c-1.5,0.1-2.9,0.3-4.2,0.4v-5.1c-1.2,1.7-2.5,3-3.9,3.8c-1.4,0.9-2.8,1.3-4.4,1.3c-2.2,0-3.8-0.8-4.8-2.3c-1-1.5-1.5-4.1-1.5-7.7 v-9.8c0-1.1-0.2-1.9-0.5-2.2c-0.3-0.3-1-0.5-2.1-0.5v-2.2c1.8-0.1,3.6-0.2,5.1-0.3c1.6-0.1,3.1-0.3,4.6-0.4v16.8 c0,1.8,0.2,3.1,0.5,3.8s1,1,1.9,1c1.3,0,2.4-0.7,3.1-2c0.8-1.4,1.2-3.2,1.2-5.6V511.8z" style="fill: rgb(235, 255, 212);"/>
    <path class="st6" d="M438.5,531.5h-3.3l-6.7-18.6c-0.6-1.6-1.1-2.6-1.5-3.1c-0.5-0.5-1.1-0.8-1.8-0.8v-2.2H437v2.2 c-0.9,0-1.5,0.1-1.8,0.3c-0.4,0.2-0.5,0.5-0.5,1c0,0.2,0,0.4,0,0.5c0,0.2,0.1,0.3,0.1,0.4l4.3,12l3.5-10.1 c-0.3-1.5-0.7-2.5-1.2-3.1s-1.2-0.9-2.1-1l0-2.2h12.1v2.2c-1,0-1.6,0.1-2,0.3c-0.4,0.2-0.6,0.5-0.6,1c0,0.1,0,0.3,0,0.4 c0,0.1,0.1,0.3,0.1,0.5l3.6,11.8l3.9-10.8c0.1-0.3,0.2-0.5,0.2-0.7c0.1-0.2,0.1-0.4,0.1-0.6c0-0.6-0.2-1-0.6-1.3 c-0.4-0.3-1.2-0.5-2.2-0.5v-2.2h8.5v2.2c-0.8,0.1-1.5,0.5-2,1c-0.5,0.5-1,1.3-1.4,2.5l-7.3,19h-3.5l-4.4-14.9L438.5,531.5z" style="fill: rgb(235, 255, 212);"/>
    <path class="st6" d="M477.4,527.7c-1.4,1.3-2.7,2.2-4.1,2.9c-1.4,0.6-2.7,1-4.1,1c-1.9,0-3.4-0.6-4.6-1.7c-1.2-1.2-1.8-2.6-1.8-4.4 c0-2.5,1.2-4.5,3.5-5.9c2.3-1.4,5.9-2.3,10.7-2.7v-3.3c0-2.1-0.3-3.5-1-4.3c-0.6-0.8-1.8-1.2-3.3-1.2c-0.7,0-1.3,0.1-1.8,0.3 c-0.5,0.2-0.8,0.4-0.8,0.7c0,0,0,0.1,0.1,0.3c0,0.1,0.1,0.1,0.1,0.2l0.7,1c0.1,0.2,0.2,0.5,0.3,0.8c0.1,0.3,0.1,0.6,0.1,0.9 c0,0.9-0.3,1.6-1,2.2s-1.5,0.9-2.6,0.9c-1.1,0-2-0.3-2.7-0.9c-0.7-0.6-1-1.4-1-2.5c0-1.7,0.9-3.1,2.7-4.2s4.2-1.7,7-1.7 c3.5,0,6.1,0.7,7.7,2.2c1.7,1.5,2.5,3.7,2.5,6.9v11.6c0,0.4,0.1,0.7,0.2,0.9s0.4,0.3,0.7,0.3c0.2,0,0.5-0.1,0.9-0.2 c0.4-0.2,0.6-0.2,0.8-0.2c0.2,0,0.3,0.1,0.5,0.2c0.1,0.2,0.2,0.3,0.2,0.5c0,0.7-0.6,1.3-1.7,2c-1.1,0.7-2.3,1-3.5,1 c-1.2,0-2.1-0.3-2.8-0.9S477.8,528.9,477.4,527.7z M476.9,518.8c-2.4,0.3-4.1,1-5.3,1.9c-1.2,0.9-1.7,2.1-1.7,3.6 c0,1,0.3,1.8,0.9,2.4c0.6,0.6,1.4,0.9,2.4,0.9c1.3,0,2.3-0.5,3-1.6c0.6-1.1,1-2.7,1-4.9c0-0.3,0-0.5,0-0.8 C477,520,477,519.5,476.9,518.8z" style="fill: rgb(235, 255, 212);"/>
    <path class="st6" d="M489,530.8v-2.1c1-0.1,1.6-0.4,1.9-0.8s0.5-1.2,0.5-2.4v-13.7c0-1.2-0.2-1.9-0.5-2.2c-0.3-0.3-1-0.5-2.1-0.5 v-2.2c1.7-0.1,3.4-0.2,4.8-0.3c1.5-0.1,2.9-0.3,4.2-0.4v5.6c0.8-1.7,1.8-3,2.9-3.9c1.1-0.9,2.3-1.3,3.7-1.3c1.4,0,2.6,0.4,3.5,1.2 c0.9,0.8,1.4,1.9,1.4,3.1c0,1.1-0.3,2-1,2.6c-0.7,0.7-1.6,1-2.7,1c-0.9,0-1.6-0.2-2.2-0.7s-0.9-1.1-0.9-1.8c0-0.1,0-0.2,0-0.3 c0-0.1,0-0.2,0.1-0.3l0.2-1c0,0,0-0.1,0-0.2c0-0.1,0-0.1,0-0.2c0-0.2-0.1-0.4-0.2-0.5c-0.1-0.1-0.3-0.2-0.6-0.2 c-0.9,0-1.8,0.9-2.5,2.7c-0.8,1.8-1.2,4-1.2,6.6v6.7c0,1.2,0.2,2,0.6,2.5c0.4,0.5,1,0.7,1.9,0.7h1.1v2.1H489z" style="fill: rgb(235, 255, 212);"/>
    <path class="st6" d="M525.1,527.7c-1.4,1.3-2.7,2.2-4.1,2.9c-1.4,0.6-2.7,1-4.1,1c-1.9,0-3.4-0.6-4.6-1.7c-1.2-1.2-1.8-2.6-1.8-4.4 c0-2.5,1.2-4.5,3.5-5.9c2.3-1.4,5.9-2.3,10.7-2.7v-3.3c0-2.1-0.3-3.5-1-4.3c-0.6-0.8-1.8-1.2-3.3-1.2c-0.7,0-1.3,0.1-1.8,0.3 c-0.5,0.2-0.8,0.4-0.8,0.7c0,0,0,0.1,0.1,0.3c0,0.1,0.1,0.1,0.1,0.2l0.7,1c0.1,0.2,0.2,0.5,0.3,0.8c0.1,0.3,0.1,0.6,0.1,0.9 c0,0.9-0.3,1.6-1,2.2s-1.5,0.9-2.6,0.9c-1.1,0-2-0.3-2.7-0.9c-0.7-0.6-1-1.4-1-2.5c0-1.7,0.9-3.1,2.7-4.2s4.2-1.7,7-1.7 c3.5,0,6.1,0.7,7.7,2.2c1.7,1.5,2.5,3.7,2.5,6.9v11.6c0,0.4,0.1,0.7,0.2,0.9s0.4,0.3,0.7,0.3c0.2,0,0.5-0.1,0.9-0.2 c0.4-0.2,0.6-0.2,0.8-0.2c0.2,0,0.3,0.1,0.5,0.2c0.1,0.2,0.2,0.3,0.2,0.5c0,0.7-0.6,1.3-1.7,2c-1.1,0.7-2.3,1-3.5,1 c-1.2,0-2.1-0.3-2.8-0.9S525.5,528.9,525.1,527.7z M524.6,518.8c-2.4,0.3-4.1,1-5.3,1.9c-1.2,0.9-1.7,2.1-1.7,3.6 c0,1,0.3,1.8,0.9,2.4c0.6,0.6,1.4,0.9,2.4,0.9c1.3,0,2.3-0.5,3-1.6c0.6-1.1,1-2.7,1-4.9c0-0.3,0-0.5,0-0.8 C524.7,520,524.7,519.5,524.6,518.8z" style="fill: rgb(235, 255, 212);"/>
    <path class="st6" d="M552.7,503.5c0-1.6-0.2-2.6-0.7-3c-0.5-0.4-1.6-0.7-3.3-0.8v-2.3h15.9v2.3c-1.5,0.1-2.4,0.4-2.9,0.8 s-0.7,1.5-0.7,3v14.8c0,3.5,0.6,6.1,1.8,7.7c1.2,1.6,3.2,2.4,5.9,2.4c2.7,0,4.6-0.8,5.9-2.4c1.3-1.6,1.9-4.2,1.9-7.6v-14.8 c0-1.6-0.2-2.6-0.7-3c-0.5-0.4-1.4-0.7-2.9-0.8v-2.3h10.3v2.3c-1.7,0.1-2.8,0.4-3.3,0.8c-0.5,0.4-0.7,1.4-0.7,3v14.1 c0,4.9-1.1,8.4-3.2,10.6c-2.1,2.2-5.5,3.3-10.1,3.3c-4.6,0-8-1.1-10.1-3.3c-2.1-2.2-3.2-5.8-3.2-10.6V503.5z" style="fill: rgb(235, 255, 212);"/>
    <path class="st6" d="M588,509h-2.8v-2.1c1.9-0.6,3.5-1.6,4.7-3.2c1.2-1.5,2.1-3.6,2.7-6.3h2.5v9.5h5.4v2.1h-5.4v13.9 c0,1.6,0.1,2.7,0.4,3.4c0.3,0.7,0.7,1.1,1.2,1.1c0.6,0,1.1-0.5,1.5-1.5c0.4-1,0.7-2.4,0.8-4.3l2.2,0v0.3c0,3.1-0.6,5.4-1.9,7.1 c-1.3,1.7-3,2.5-5.4,2.5c-2.1,0-3.7-0.6-4.6-1.9c-0.9-1.3-1.4-3.4-1.4-6.5V509z" style="fill: rgb(235, 255, 212);"/>
    <path class="st6" d="M626.7,525.5c0,1.2,0.2,2,0.5,2.4s1,0.7,1.9,0.9v2.1h-11.9v-2.1c0.9-0.1,1.6-0.4,1.9-0.8 c0.3-0.4,0.5-1.2,0.5-2.5v-10.3c0-1.8-0.2-3.1-0.5-3.8c-0.4-0.7-1-1-1.9-1c-1.3,0-2.4,0.7-3.2,2c-0.8,1.3-1.2,3.2-1.2,5.6v7.5 c0,1.2,0.2,2,0.5,2.5c0.3,0.4,1,0.7,1.9,0.8v2.1h-11.9v-2.1c1-0.1,1.6-0.4,1.9-0.8c0.3-0.4,0.5-1.2,0.5-2.4v-23.9 c0-1.1-0.2-1.9-0.5-2.2s-1.1-0.6-2.1-0.6v-2.1c1.5-0.1,3-0.2,4.6-0.4c1.6-0.2,3.3-0.4,5.1-0.8v15.3c1.1-1.4,2.3-2.5,3.6-3.2 c1.3-0.7,2.6-1.1,4.1-1.1c2.2,0,3.8,0.8,4.8,2.3c1,1.5,1.5,4.1,1.5,7.7V525.5z" style="fill: rgb(235, 255, 212);"/>
    <path class="st6" d="M632.8,531.2v-8.5h2.1c1.1,2.3,2.2,4,3.4,5.1c1.2,1.1,2.5,1.6,4,1.6c1.2,0,2.1-0.3,2.9-0.9s1.1-1.4,1.1-2.4 c0-1.5-1.6-2.8-4.7-4c-0.3-0.1-0.6-0.2-0.8-0.3c-3.2-1.2-5.3-2.4-6.6-3.7c-1.2-1.2-1.8-2.8-1.8-4.6c0-2.1,0.8-3.9,2.3-5.2 s3.5-2,5.9-2c1.3,0,2.6,0.3,4,0.8c1.4,0.5,2.1,0.8,2.3,0.8c0.3,0,0.6-0.1,0.9-0.3c0.2-0.2,0.4-0.5,0.5-0.9h1.9v7.3h-2 c-0.8-1.8-1.8-3.2-2.9-4.1c-1.1-0.9-2.4-1.4-3.8-1.4c-1.2,0-2.2,0.3-2.9,0.8s-1.1,1.3-1.1,2.1c0,1.4,1.6,2.6,4.8,3.8 c0.4,0.1,0.7,0.2,0.9,0.3c3.4,1.2,5.7,2.5,6.9,3.7c1.2,1.2,1.9,2.8,1.9,4.7c0,2.4-0.7,4.3-2.2,5.7s-3.5,2.1-6,2.1 c-1.6,0-3.1-0.3-4.8-0.8c-1.6-0.6-2.5-0.8-2.5-0.8c-0.3,0-0.6,0.1-0.9,0.3c-0.3,0.2-0.5,0.6-0.7,1H632.8z" style="fill: rgb(235, 255, 212);"/>
    <path class="st6" d="M669.2,527.7c-1.4,1.3-2.7,2.2-4.1,2.9c-1.4,0.6-2.7,1-4.1,1c-1.9,0-3.4-0.6-4.6-1.7c-1.2-1.2-1.8-2.6-1.8-4.4 c0-2.5,1.2-4.5,3.5-5.9c2.3-1.4,5.9-2.3,10.7-2.7v-3.3c0-2.1-0.3-3.5-1-4.3c-0.6-0.8-1.8-1.2-3.3-1.2c-0.7,0-1.3,0.1-1.8,0.3 c-0.5,0.2-0.8,0.4-0.8,0.7c0,0,0,0.1,0.1,0.3c0,0.1,0.1,0.1,0.1,0.2l0.7,1c0.1,0.2,0.2,0.5,0.3,0.8c0.1,0.3,0.1,0.6,0.1,0.9 c0,0.9-0.3,1.6-1,2.2s-1.5,0.9-2.6,0.9c-1.1,0-2-0.3-2.7-0.9c-0.7-0.6-1-1.4-1-2.5c0-1.7,0.9-3.1,2.7-4.2s4.2-1.7,7-1.7 c3.5,0,6.1,0.7,7.7,2.2c1.7,1.5,2.5,3.7,2.5,6.9v11.6c0,0.4,0.1,0.7,0.2,0.9s0.4,0.3,0.7,0.3c0.2,0,0.5-0.1,0.9-0.2 c0.4-0.2,0.6-0.2,0.8-0.2c0.2,0,0.3,0.1,0.5,0.2c0.1,0.2,0.2,0.3,0.2,0.5c0,0.7-0.6,1.3-1.7,2c-1.1,0.7-2.3,1-3.5,1 c-1.2,0-2.1-0.3-2.8-0.9S669.6,528.9,669.2,527.7z M668.7,518.8c-2.4,0.3-4.1,1-5.3,1.9c-1.2,0.9-1.7,2.1-1.7,3.6 c0,1,0.3,1.8,0.9,2.4c0.6,0.6,1.4,0.9,2.4,0.9c1.3,0,2.3-0.5,3-1.6c0.6-1.1,1-2.7,1-4.9c0-0.3,0-0.5,0-0.8 C668.8,520,668.8,519.5,668.7,518.8z" style="fill: rgb(235, 255, 212);"/>
    <path class="st6" d="M680.9,530.8v-2.1c1-0.1,1.6-0.4,1.9-0.8s0.5-1.2,0.5-2.4v-13.7c0-1.2-0.2-1.9-0.5-2.2c-0.3-0.3-1-0.5-2.1-0.5 v-2.2c1.7-0.1,3.4-0.2,4.8-0.3c1.5-0.1,2.9-0.3,4.2-0.4v5.6c0.8-1.7,1.8-3,2.9-3.9c1.1-0.9,2.3-1.3,3.7-1.3c1.4,0,2.6,0.4,3.5,1.2 c0.9,0.8,1.4,1.9,1.4,3.1c0,1.1-0.3,2-1,2.6c-0.7,0.7-1.6,1-2.7,1c-0.9,0-1.6-0.2-2.2-0.7s-0.9-1.1-0.9-1.8c0-0.1,0-0.2,0-0.3 c0-0.1,0-0.2,0.1-0.3l0.2-1c0,0,0-0.1,0-0.2c0-0.1,0-0.1,0-0.2c0-0.2-0.1-0.4-0.2-0.5c-0.1-0.1-0.3-0.2-0.6-0.2 c-0.9,0-1.8,0.9-2.5,2.7c-0.8,1.8-1.2,4-1.2,6.6v6.7c0,1.2,0.2,2,0.6,2.5c0.4,0.5,1,0.7,1.9,0.7h1.1v2.1H680.9z" style="fill: rgb(235, 255, 212);"/>
    <path class="st6" d="M716.9,527.7c-1.4,1.3-2.7,2.2-4.1,2.9c-1.4,0.6-2.7,1-4.1,1c-1.9,0-3.4-0.6-4.6-1.7c-1.2-1.2-1.8-2.6-1.8-4.4 c0-2.5,1.2-4.5,3.5-5.9c2.3-1.4,5.9-2.3,10.7-2.7v-3.3c0-2.1-0.3-3.5-1-4.3c-0.6-0.8-1.8-1.2-3.3-1.2c-0.7,0-1.3,0.1-1.8,0.3 c-0.5,0.2-0.8,0.4-0.8,0.7c0,0,0,0.1,0.1,0.3c0,0.1,0.1,0.1,0.1,0.2l0.7,1c0.1,0.2,0.2,0.5,0.3,0.8c0.1,0.3,0.1,0.6,0.1,0.9 c0,0.9-0.3,1.6-1,2.2s-1.5,0.9-2.6,0.9c-1.1,0-2-0.3-2.7-0.9c-0.7-0.6-1-1.4-1-2.5c0-1.7,0.9-3.1,2.7-4.2s4.2-1.7,7-1.7 c3.5,0,6.1,0.7,7.7,2.2c1.7,1.5,2.5,3.7,2.5,6.9v11.6c0,0.4,0.1,0.7,0.2,0.9s0.4,0.3,0.7,0.3c0.2,0,0.5-0.1,0.9-0.2 c0.4-0.2,0.6-0.2,0.8-0.2c0.2,0,0.3,0.1,0.5,0.2c0.1,0.2,0.2,0.3,0.2,0.5c0,0.7-0.6,1.3-1.7,2c-1.1,0.7-2.3,1-3.5,1 c-1.2,0-2.1-0.3-2.8-0.9S717.4,528.9,716.9,527.7z M716.4,518.8c-2.4,0.3-4.1,1-5.3,1.9c-1.2,0.9-1.7,2.1-1.7,3.6 c0,1,0.3,1.8,0.9,2.4c0.6,0.6,1.4,0.9,2.4,0.9c1.3,0,2.3-0.5,3-1.6c0.6-1.1,1-2.7,1-4.9c0-0.3,0-0.5,0-0.8 C716.5,520,716.5,519.5,716.4,518.8z" style="fill: rgb(235, 255, 212);"/>
  </g>
  <g transform="matrix(1, 0, 0, 1, 69.939857, -171.272522)">
    <path class="st7" d="M494,698.2c0,0.7,0,1.3,0,1.9c0,0.2-0.1,0.3-0.3,0.3c-0.5,0-1.1,0-1.6,0c-0.3,0-0.4-0.1-0.4-0.4 c0-0.5,0-1,0-1.6c0-1.5,0-2.9,0-4.4c0-0.4,0-0.4,0.4-0.5c0.5,0,1,0,1.4,0c0.4,0,0.4,0,0.4,0.5c0,0.5,0,1,0,1.4 c0,0.2,0.1,0.3,0.3,0.3c0.5,0,1,0,1.4,0c0.2,0,0.3-0.1,0.3-0.3c0-0.5,0-1,0-1.5c0-0.3,0-0.4,0.4-0.4c0.5,0,1.1,0,1.6,0 c0.3,0,0.3,0.1,0.3,0.3c0,2,0,4.1,0,6.1c0,0.2,0,0.4-0.3,0.4c-0.6,0-1.1,0-1.7,0c-0.3,0-0.3-0.1-0.3-0.3c0-0.5,0-1,0-1.5 c0-0.3,0-0.4-0.3-0.4C495.2,698.3,494.6,698.2,494,698.2z" style="fill: rgb(8, 8, 8);"/>
    <path class="st7" d="M484.6,693.8c0.2-0.1,0.3-0.1,0.4-0.1c1.6,0,3.1,0,4.7,0c0.3,0,0.5,0,0.4,0.4c0,1.4,0,2.9,0,4.3 c0,0.4-0.2,0.4-0.4,0.4c-0.8,0-1.6,0-2.4,0c-0.3,0-0.4,0.1-0.4,0.4c0,0.1,0,0.2,0,0.3c0,1,0,1-1,1c-0.4,0-0.9,0.1-1.3-0.1 c0-0.4,0-0.8,0-1.3c0-1.6,0-3.2,0-4.8C484.6,694.1,484.6,693.9,484.6,693.8z M487.4,696.6c0.5,0,0.5,0,0.5-0.3c0-0.4,0-0.4-0.4-0.4 c-0.2,0-0.5-0.1-0.5,0.3C487,696.6,487,696.6,487.4,696.6z" style="fill: rgb(8, 8, 8);"/>
    <path class="st7" d="M499.8,697c0-1,0-1.9,0-2.9c0-0.5,0-0.5,0.4-0.5c1.6,0,3.1,0,4.7,0c0.3,0,0.4,0.1,0.4,0.4c0,1.4,0,2.8,0,4.3 c0,0.4,0,0.4-0.5,0.4c-0.7,0-1.4,0-2.1,0c-0.7,0-0.7,0-0.7,0.7c0,0.2,0,0.4,0,0.6c0,0.3-0.1,0.4-0.4,0.4c-0.5,0-1,0-1.6,0 c-0.3,0-0.4-0.1-0.4-0.4C499.8,699,499.8,698,499.8,697z M502.6,695.9c-0.5,0-0.5,0-0.5,0.3c0,0.4,0,0.4,0.4,0.4 c0.2,0,0.5,0.1,0.5-0.3C503,695.9,503,695.9,502.6,695.9z" style="fill: rgb(8, 8, 8);"/>
    <path class="st8" d="M573.4,701c-1,0-1.8,0-2.6,0c-0.3,0-0.5,0-0.7-0.3c-0.2-0.3-0.4-0.3-0.7-0.3c-0.8,0-1.6,0-2.4,0 c-0.3,0-0.4-0.1-0.4-0.4c0-2,0-4,0-6c0-0.3,0.1-0.4,0.4-0.4c1.6,0,3.3,0,4.9,0c0.3,0,0.4,0.2,0.4,0.4c0,1.6,0,3.2,0,4.8 c0,0.5,0.1,0.9,0.5,1.3C573,700.4,573.1,700.7,573.4,701z M569.9,697.1C569.9,697.1,569.9,697.1,569.9,697.1c0-0.3,0-0.6,0-0.9 c0-0.3-0.1-0.4-0.3-0.4c-0.2,0-0.5,0-0.4,0.3c0,0.6,0,1.2,0,1.7c0,0.3,0.1,0.4,0.4,0.4c0.3,0,0.4-0.1,0.4-0.3 C569.9,697.7,569.9,697.4,569.9,697.1z" style="fill: rgb(39, 36, 37);"/>
    <path class="st8" d="M562.7,695.8c0.8,0.8,1.4,1.5,2.1,2.1c0.2,0.2,0.3,0.5,0.3,0.8c0,0.4,0,0.9,0,1.3c0,0.2-0.1,0.4-0.3,0.4 c-1.6,0-3.3,0-4.9,0c-0.3,0-0.4-0.1-0.4-0.4c0-0.4,0-0.9,0-1.3c0-0.5,0-0.5,0.4-0.5c0.4,0,0.8,0,1.3,0c0.1,0,0.3,0,0.5-0.1 c-0.4-0.4-0.8-0.9-1.2-1.3c-0.8-0.6-1.1-1.4-1-2.4c0.1-0.8,0-0.8,0.8-0.8c1.4,0,2.9,0,4.3,0c0.5,0,0.5,0,0.5,0.4c0,0.4,0,0.8,0,1.2 c0,0.5,0,0.5-0.5,0.5C564,695.8,563.4,695.8,562.7,695.8z" style="fill: rgb(39, 36, 37);"/>
    <path class="st7" d="M573.9,697c0-1,0-1.9,0-2.9c0-0.5,0-0.5,0.5-0.5c0.5,0,1,0,1.4,0c0.3,0,0.4,0.1,0.4,0.4c0,1.2,0,2.4,0,3.6 c0,0.6,0,0.5,0.6,0.5c0.8,0,1.5,0,2.3,0c0.3,0,0.5,0.1,0.4,0.4c0,0.5,0,1,0,1.4c0,0.3-0.1,0.4-0.4,0.4c-1.6,0-3.2,0-4.8,0 c-0.3,0-0.4-0.1-0.4-0.4C574,699,573.9,698,573.9,697z" style="fill: rgb(8, 8, 8);"/>
    <path class="st9" d="M487.4,696.6c-0.4,0-0.4,0-0.4-0.4c0-0.4,0.2-0.3,0.5-0.3c0.4,0,0.4,0,0.4,0.4 C487.9,696.6,487.9,696.6,487.4,696.6z" style="fill: rgb(233, 234, 233);"/>
    <path class="st9" d="M502.6,695.9c0.4,0,0.4,0,0.4,0.4c0,0.4-0.3,0.3-0.5,0.3c-0.4,0-0.4,0-0.4-0.4 C502.1,695.9,502.1,695.9,502.6,695.9z" style="fill: rgb(233, 234, 233);"/>
    <path class="st10" d="M569.9,697.1c0,0.3,0,0.6,0,0.9c0,0.3-0.1,0.3-0.4,0.3c-0.3,0-0.4,0-0.4-0.4c0-0.6,0-1.2,0-1.7 c0-0.4,0.2-0.3,0.4-0.3c0.3,0,0.4,0.1,0.3,0.4C569.9,696.5,569.9,696.8,569.9,697.1C569.9,697.1,569.9,697.1,569.9,697.1z" style="fill: rgb(254, 254, 254);"/>
    <g>
      <path class="st11" d="M536.2,614.9c7.5,0.6,14.3,3.3,20.1,8.2c6.2,5.2,10.2,11.8,12,19.7c0.9,3.9,1,7.8,0.6,11.8 c-1.6,14-11.5,26-25.2,30.1c-4.3,1.3-8.6,1.7-13.1,1.4c-8.7-0.7-16.2-4.2-22.4-10.3c-5.1-5-8.3-11.1-9.8-18.1 c-0.7-3.4-0.9-6.9-0.6-10.3c0.7-7.6,3.5-14.4,8.5-20.2c4.8-5.6,10.8-9.3,17.9-11.2c2.1-0.6,4.1-0.9,6.2-1.1c0.5,0,1,0,1.5-0.1 c0.8,0,1.5,0,2.3,0C534.9,615,535.6,614.9,536.2,614.9z M533.4,681c16.7,0,30.5-13.4,30.5-30.5c0-17.3-14.1-30.4-30.3-30.5 c-16.6-0.1-30.6,13.4-30.6,30.5C502.9,667.3,516.6,681,533.4,681z" style="fill: rgb(32, 100, 174);"/>
      <path class="st12" d="M536.2,614.9c-0.6,0-1.2,0-1.8-0.1c0.6,0,1.3,0,1.9,0C536.2,614.8,536.2,614.9,536.2,614.9z" style="fill: rgb(182, 118, 169);"/>
      <path class="st9" d="M532.1,614.8c-0.5,0.1-1,0.1-1.5,0.1c0,0,0-0.1,0-0.1C531.1,614.8,531.6,614.8,532.1,614.8z" style="fill: rgb(233, 234, 233);"/>
      <path class="st10" d="M533.4,681c-16.8,0-30.4-13.7-30.4-30.5c0-17,13.9-30.5,30.6-30.5c16.2,0.1,30.3,13.1,30.3,30.5 C563.9,667.6,550,681,533.4,681z M551.5,636.3c-0.3,0-0.5,0-0.7,0c-11.6,0-23.2,0-34.9,0c-0.1,0-0.3,0-0.4,0 c-0.3,0-0.3,0.1-0.3,0.3c0.1,0.6,0.1,1.3,0.2,1.9c0.2,2.2,0.4,4.4,0.6,6.6c0.1,1.6,0.3,3.2,0.4,4.8c0.2,2.2,0.4,4.4,0.6,6.6 c0.1,1.6,0.3,3.2,0.4,4.8c0.2,2.2,0.4,4.4,0.6,6.6c0.1,1.6,0.3,3.3,0.4,4.9c0,0.4,0.2,0.6,0.6,0.7c4.6,1.3,9.2,2.5,13.7,3.8 c0.4,0.1,0.7,0.1,1.1,0c2.5-0.7,5-1.4,7.5-2.1c2.1-0.6,4.2-1.2,6.2-1.7c0.5-0.2,0.5-0.2,0.6-0.7c0-0.5,0.1-1,0.1-1.6 c0.1-1.6,0.3-3.2,0.4-4.8c0.2-2.6,0.5-5.2,0.7-7.8c0.2-2.1,0.4-4.2,0.5-6.3c0.2-2.3,0.4-4.5,0.6-6.8c0.1-1.6,0.3-3.3,0.4-4.9 C551.3,639.3,551.4,637.8,551.5,636.3z M540.7,628.7c0,0,0-0.1,0.1-0.1c0.6,0,1.3,0,1.9,0c0.2,0,0.3-0.1,0.3-0.3c0-0.5,0-1,0-1.5 c0-0.2-0.1-0.3-0.3-0.3c-1.7,0-3.3,0-5,0c-0.2,0-0.3,0.1-0.3,0.3c0,0.5,0,1,0,1.4c0,0.3,0.1,0.5,0.3,0.7c0.6,0.6,1.1,1.2,1.6,1.8 c0.1,0.1,0.3,0.2,0.3,0.4c-0.6,0-1.2,0-1.7,0c-0.3,0-0.4,0.1-0.4,0.4c0,0.5,0,0.9,0,1.4c0,0.3,0.1,0.4,0.4,0.4c0.5,0,1,0,1.6,0 c1.1,0,2.2,0,3.3,0c0.3,0,0.4-0.1,0.4-0.4c0-0.3,0-0.6,0-0.9c0.1-0.6-0.1-1.1-0.6-1.5C541.8,629.9,541.3,629.2,540.7,628.7z M534,628.5c0.6,0,1.2,0,1.8,0c0.3,0,0.5,0,0.4-0.4c0-0.5,0-0.9,0-1.4c0-0.3-0.1-0.4-0.4-0.4c-1.6,0-3.3,0-4.9,0 c-0.2,0-0.3,0.1-0.4,0.3c-0.1,1.1-0.1,2.2,1,2.9c0.4,0.3,0.7,0.7,1,1.1c0.1,0.1,0.2,0.2,0.2,0.4c-0.5,0-1.1,0-1.7,0 c-0.5,0-0.5,0-0.5,0.4c0,0.4,0,0.8,0,1.3c0,0.4,0,0.4,0.5,0.4c0.9,0,1.7,0,2.6,0c0.7,0,1.4,0,2.1,0c0.3,0,0.4-0.1,0.4-0.4 c0-0.4,0-0.8,0-1.3c0-0.3-0.1-0.6-0.3-0.8c-0.6-0.6-1.1-1.1-1.7-1.7C534.1,628.9,534,628.8,534,628.5z M523.8,629.8c0,1,0,2,0,3 c0,0.3,0.1,0.4,0.4,0.4c1.6,0,3.2,0,4.8,0c0.3,0,0.5-0.1,0.4-0.4c0-0.4,0-0.9,0-1.3c0-0.4-0.1-0.4-0.4-0.4c-0.8,0-1.6,0-2.4,0 c-0.3,0-0.4-0.1-0.4-0.4c0-0.6,0-1.2,0-1.8c0-0.3,0.1-0.4,0.4-0.4c0.8,0,1.6,0,2.5,0c0.2,0,0.3-0.1,0.3-0.3c0-0.5,0-0.9,0-1.4 c0-0.4,0-0.4-0.5-0.4c-1.6,0-3.1,0-4.7,0c-0.4,0-0.5,0-0.5,0.4C523.8,627.8,523.8,628.8,523.8,629.8z" style="fill: rgb(254, 254, 254);"/>
      <path class="st11" d="M551.5,636.3c-0.1,1.5-0.2,2.9-0.4,4.3c-0.1,1.6-0.3,3.3-0.4,4.9c-0.2,2.3-0.4,4.5-0.6,6.8 c-0.2,2.1-0.4,4.2-0.5,6.3c-0.2,2.6-0.5,5.2-0.7,7.8c-0.1,1.6-0.3,3.2-0.4,4.8c0,0.5-0.1,1-0.1,1.6c0,0.6,0,0.6-0.6,0.7 c-2.1,0.6-4.2,1.2-6.2,1.7c-2.5,0.7-5,1.4-7.5,2.1c-0.4,0.1-0.7,0.1-1.1,0c-4.6-1.3-9.2-2.6-13.7-3.8c-0.4-0.1-0.6-0.3-0.6-0.7 c-0.1-1.6-0.3-3.3-0.4-4.9c-0.2-2.2-0.4-4.4-0.6-6.6c-0.1-1.6-0.3-3.2-0.4-4.8c-0.2-2.2-0.4-4.4-0.6-6.6c-0.1-1.6-0.3-3.2-0.4-4.8 c-0.2-2.2-0.4-4.4-0.6-6.6c-0.1-0.6-0.1-1.3-0.2-1.9c0-0.2,0.1-0.4,0.3-0.3c0.1,0,0.3,0,0.4,0c11.6,0,23.2,0,34.9,0 C551.1,636.3,551.3,636.3,551.5,636.3z M533.3,664.8c-0.1,0-0.3,0-0.4-0.1c-1.4-0.4-2.7-0.7-4.1-1.1c-0.5-0.1-0.5-0.2-0.6-0.7 c-0.1-0.9-0.2-1.7-0.2-2.6c0-0.4-0.2-0.4-0.5-0.4c-1.2,0-2.4,0-3.6,0c-0.5,0-0.5,0-0.5,0.5c0,0.1,0,0.1,0,0.2 c0.2,1.7,0.3,3.5,0.5,5.2c0.1,1.5-0.2,1.2,1.3,1.6c2.7,0.8,5.4,1.5,8.2,2.3c0,1.5,0,3,0,4.6c0.8-0.2,1.5-0.4,2.2-0.6 c2.2-0.6,4.3-1.2,6.5-1.8c0.9-0.3,1.9-0.5,2.8-0.8c0.2-0.1,0.4-0.1,0.4-0.4c0.1-1.2,0.3-2.5,0.3-3.7c0.1-1.2,0.2-2.4,0.3-3.7 c0-0.5,0-1,0.1-1.6c0.1-0.6,0.1-1.2,0.2-1.8c0.1-0.7,0.1-1.5,0.2-2.2c0-0.6,0.1-1.2,0.1-1.7c0.1-0.7,0.2-1.3,0.2-2 c0-0.7,0.1-1.4,0.2-2.1c0-0.5,0-0.9,0.1-1.4c0.2-1.1,0.2-2.2,0.3-3.4c0.1-1.2,0.2-2.4,0.3-3.6c0-0.6,0.1-1.2,0.1-1.7 c0.1-0.6,0.2-1.2,0.2-1.9c0-0.6,0-0.6-0.6-0.6c-4.5,0-9.1,0-13.6,0c-0.6,0-0.6,0-0.6,0.6c0,1.3,0,2.7,0,4c-0.3,0-0.6,0-0.9,0 c-3.2,0-6.5,0-9.7,0c-0.2,0-0.3,0-0.5,0c-0.2,0-0.3,0.1-0.3,0.3c0.1,1.2,0.2,2.5,0.3,3.7c0,0.4,0,0.4,0.5,0.4c0.1,0,0.3,0,0.4,0 c3.1,0,6.2,0,9.4,0c0.2,0,0.5-0.1,0.7,0.1c-0.1,0.2-0.2,0.2-0.4,0.2c-1,0.4-2,0.8-2.9,1.3c-2.2,1-4.5,1.9-6.7,2.9 c-0.3,0.1-0.4,0.3-0.4,0.6c0.1,1.2,0.2,2.5,0.3,3.7c0,0.2,0.1,0.3,0.4,0.3c0.1,0,0.3,0,0.4,0c2.9,0,5.8,0,8.7,0c0.3,0,0.5,0,0.8,0 c0,2.2,0,4.3,0,6.5C533.4,664.3,533.5,664.6,533.3,664.8z" style="fill: rgb(32, 100, 174);"/>
      <path class="st8" d="M540.7,628.7c0.6,0.6,1.1,1.2,1.7,1.7c0.5,0.4,0.7,0.9,0.6,1.5c0,0.3,0,0.6,0,0.9c0,0.3-0.1,0.4-0.4,0.4 c-1.1,0-2.2,0-3.3,0c-0.5,0-1,0-1.6,0c-0.3,0-0.4-0.1-0.4-0.4c0-0.5,0-0.9,0-1.4c0-0.3,0.1-0.4,0.4-0.4c0.6,0,1.2,0,1.7,0 c0-0.2-0.2-0.3-0.3-0.4c-0.5-0.6-1.1-1.2-1.6-1.8c-0.2-0.2-0.3-0.4-0.3-0.7c0-0.5,0-1,0-1.4c0-0.2,0.1-0.3,0.3-0.3 c1.7,0,3.3,0,5,0c0.2,0,0.3,0.1,0.3,0.3c0,0.5,0,1,0,1.5c0,0.3-0.1,0.3-0.3,0.3c-0.6,0-1.3,0-1.9,0 C540.8,628.6,540.8,628.6,540.7,628.7z" style="fill: rgb(39, 36, 37);"/>
      <path class="st8" d="M534,628.5c0,0.3,0.2,0.3,0.3,0.5c0.6,0.6,1.1,1.2,1.7,1.7c0.2,0.2,0.3,0.5,0.3,0.8c0,0.4,0,0.8,0,1.3 c0,0.3-0.1,0.4-0.4,0.4c-0.7,0-1.4,0-2.1,0c-0.9,0-1.7,0-2.6,0c-0.5,0-0.5,0-0.5-0.4c0-0.4,0-0.8,0-1.3c0-0.4,0-0.4,0.5-0.4 c0.6,0,1.1,0,1.7,0c0-0.2-0.1-0.3-0.2-0.4c-0.3-0.4-0.6-0.8-1-1.1c-1-0.8-1-1.8-1-2.9c0-0.3,0.1-0.3,0.4-0.3c1.6,0,3.3,0,4.9,0 c0.3,0,0.4,0.1,0.4,0.4c0,0.5,0,0.9,0,1.4c0,0.4-0.1,0.4-0.4,0.4C535.2,628.5,534.6,628.5,534,628.5z" style="fill: rgb(39, 36, 37);"/>
      <path class="st8" d="M523.8,629.8c0-1,0-2,0-3c0-0.4,0-0.4,0.5-0.4c1.6,0,3.1,0,4.7,0c0.4,0,0.4,0,0.5,0.4c0,0.5,0,0.9,0,1.4 c0,0.2-0.1,0.3-0.3,0.3c-0.8,0-1.6,0-2.5,0c-0.3,0-0.4,0.1-0.4,0.4c0,0.6,0,1.2,0,1.8c0,0.3,0.1,0.4,0.4,0.4c0.8,0,1.6,0,2.4,0 c0.3,0,0.5,0.1,0.4,0.4c0,0.4,0,0.9,0,1.3c0,0.3-0.1,0.4-0.4,0.4c-1.6,0-3.2,0-4.8,0c-0.3,0-0.4-0.1-0.4-0.4 C523.8,631.8,523.8,630.8,523.8,629.8z" style="fill: rgb(39, 36, 37);"/>
      <path class="st13" d="M533.5,643.9c0-1.3,0-2.7,0-4c0-0.5,0-0.6,0.6-0.6c4.5,0,9.1,0,13.6,0c0.6,0,0.6,0,0.6,0.6 c0,0.6-0.1,1.2-0.2,1.9c-0.1,0.6-0.1,1.2-0.1,1.7c-0.1,1.2-0.2,2.4-0.3,3.6c-0.1,1.1-0.2,2.2-0.3,3.4c-0.1,0.5-0.1,0.9-0.1,1.4 c0,0.7-0.2,1.4-0.2,2.1c0,0.7-0.1,1.3-0.2,2c-0.1,0.6-0.1,1.2-0.1,1.7c-0.1,0.7-0.1,1.5-0.2,2.2c0,0.6-0.1,1.2-0.2,1.8 c-0.1,0.5-0.1,1-0.1,1.6c-0.1,1.2-0.2,2.5-0.3,3.7c-0.1,1.2-0.2,2.5-0.3,3.7c0,0.3-0.2,0.3-0.4,0.4c-0.9,0.3-1.9,0.5-2.8,0.8 c-2.2,0.6-4.3,1.2-6.5,1.8c-0.7,0.2-1.4,0.4-2.2,0.6c0-1.6,0-3.1,0-4.6c0,0,0-0.1,0-0.1c0.1,0,0.1,0,0.2,0 c2.9-0.8,5.8-1.6,8.7-2.4c0.3-0.1,0.5-0.3,0.5-0.6c0-0.7,0.1-1.5,0.2-2.2c0.2-1.7,0.3-3.5,0.5-5.2c0.1-1.2,0.2-2.3,0.3-3.5 c0.1-0.8,0.2-1.6,0.2-2.4c0-0.1,0-0.1-0.1-0.1c-3.4,0-6.9,0-10.3,0c-0.1-0.2,0.2-0.1,0.2-0.3c0.1,0,0.2-0.1,0.3-0.1 c3.1-1.3,6.3-2.6,9.4-3.8c0.7-0.3,1.1-0.6,1-1.4c0,0,0-0.1,0-0.1c0.1-1,0.2-2,0.3-3.1c0-0.2,0-0.4-0.3-0.4c-0.2,0-0.3,0-0.5,0 c-2.8,0-5.6,0-8.4,0C534.8,644,534.2,644,533.5,643.9L533.5,643.9z" style="fill: rgb(59, 154, 212);"/>
      <path class="st9" d="M533.7,652.8c0,0.2-0.3,0-0.2,0.3c0,1.5,0,3,0,4.5c0,0,0,0,0,0.1c-0.3,0-0.5,0-0.8,0c-2.9,0-5.8,0-8.7,0 c-0.1,0-0.3,0-0.4,0c-0.2,0-0.3-0.1-0.4-0.3c-0.1-1.3-0.2-2.5-0.3-3.7c0-0.3,0.1-0.5,0.4-0.6c2.2-0.9,4.5-1.9,6.7-2.9 c1-0.4,2-0.8,2.9-1.3c0.1-0.1,0.3-0.1,0.4-0.2c-0.2-0.1-0.4-0.1-0.7-0.1c-3.1,0-6.2,0-9.4,0c-0.1,0-0.3,0-0.4,0 c-0.4,0-0.5,0-0.5-0.4c-0.1-1.2-0.2-2.5-0.3-3.7c0-0.2,0.1-0.3,0.3-0.3c0.2,0,0.3,0,0.5,0c3.2,0,6.5,0,9.7,0c0.3,0,0.6,0,0.9,0 c0,0,0,0.1,0,0.1c0,0.2,0,0.4,0,0.6c0.1,1.3,0,2.6,0,3.9c0,1.2,0,2.4,0,3.6C533.4,652.4,533.5,652.7,533.7,652.8z" style="fill: rgb(233, 234, 233);"/>
      <path class="st9" d="M533.5,669.6c-2.7-0.8-5.4-1.5-8.2-2.3c-1.5-0.4-1.2-0.1-1.3-1.6c-0.2-1.7-0.3-3.5-0.5-5.2c0-0.1,0-0.1,0-0.2 c0-0.5,0-0.5,0.5-0.5c1.2,0,2.4,0,3.6,0c0.3,0,0.5,0.1,0.5,0.4c0,0.9,0.2,1.8,0.2,2.6c0,0.6,0,0.6,0.6,0.7 c1.4,0.4,2.7,0.7,4.1,1.1c0.1,0,0.2,0,0.4,0.1c0,0,0.1,0.1,0.1,0.1C533.5,666.5,533.5,668,533.5,669.6 C533.5,669.6,533.5,669.6,533.5,669.6z" style="fill: rgb(233, 234, 233);"/>
      <path class="st13" d="M533.5,664.9c0,0-0.1-0.1-0.1-0.1c0.2-0.2,0.1-0.5,0.1-0.7c0-2.2,0-4.3,0-6.5c0,0,0,0,0-0.1 c0.2,0,0.3,0,0.5,0c1.4,0,2.9,0,4.3,0c0.7,0,0.7,0,0.6,0.7c-0.1,1.6-0.3,3.1-0.4,4.7c0,0.6,0,0.5-0.6,0.7 C536.4,664.1,534.9,664.4,533.5,664.9z" style="fill: rgb(59, 154, 212);"/>
      <path class="st10" d="M533.5,664.9c1.5-0.5,3-0.8,4.5-1.3c0.5-0.2,0.5-0.1,0.6-0.7c0.1-1.6,0.3-3.1,0.4-4.7 c0.1-0.7,0.1-0.7-0.6-0.7c-1.4,0-2.9,0-4.3,0c-0.2,0-0.3,0-0.5,0c0-1.5,0-3,0-4.5c3.4,0,6.9,0,10.3,0c0,0,0.1,0.1,0.1,0.1 c0,0.8-0.1,1.6-0.2,2.4c-0.1,1.2-0.2,2.3-0.3,3.5c-0.2,1.7-0.3,3.5-0.5,5.2c-0.1,0.7-0.1,1.5-0.2,2.2c0,0.3-0.1,0.5-0.5,0.6 c-2.9,0.8-5.8,1.6-8.7,2.4c-0.1,0-0.1,0-0.2,0C533.5,668,533.5,666.5,533.5,664.9z" style="fill: rgb(254, 254, 254);"/>
      <path class="st10" d="M533.7,652.8c-0.2-0.2-0.3-0.4-0.3-0.7c0.1-1.2,0.1-2.4,0-3.6c0-1.3,0-2.6,0-3.9c0-0.2,0-0.4,0-0.6 c0.7,0,1.4,0,2.1,0c2.8,0,5.6,0,8.4,0c0.2,0,0.3,0,0.5,0c0.3,0,0.3,0.1,0.3,0.4c-0.1,1-0.2,2-0.3,3.1c0,0,0,0.1,0,0.1 c0.1,0.8-0.3,1.1-1,1.4c-3.2,1.2-6.3,2.5-9.4,3.8C533.9,652.8,533.8,652.8,533.7,652.8z" style="fill: rgb(254, 254, 254);"/>
      <path class="st9" d="M543.9,653.2c0,0-0.1-0.1-0.1-0.1C543.9,653.1,543.9,653.1,543.9,653.2z" style="fill: rgb(233, 234, 233);"/>
    </g>
    <g>
      <path class="st14" d="M642.7,652.1c-0.1,4.1-1,8.1-2.5,11.9c-4.3,10.7-13.9,18.8-25.1,21.4c-3.3,0.7-6.6,1-10,0.8 c-7.7-0.5-14.5-3.1-20.5-8c-5.4-4.4-9.2-9.9-11.4-16.6c-1.4-4.4-2-8.8-1.7-13.4c0.6-8.4,3.7-15.8,9.5-22 c5.3-5.7,11.7-9.2,19.3-10.7c1.3-0.3,2.7-0.4,4-0.6c0.6,0.1,1.3-0.1,1.9-0.1c0.8,0,1.5,0,2.3,0c0.5,0.1,1,0.1,1.5,0.1 c0.3,0,0.6,0.1,0.9,0.1c3.3,0.3,6.4,1.1,9.4,2.3c9.3,3.8,16,10.4,19.9,19.7c1.6,3.8,2.5,7.9,2.6,12 C642.7,650,642.7,651.1,642.7,652.1z M607.2,620.1c-16.6-0.1-30.5,13.4-30.5,30.4c0,16.7,13.4,30.3,30.1,30.5 c17.3,0.2,30.8-13.9,30.9-30.3C637.7,633.8,623.9,620,607.2,620.1z" style="fill: rgb(101, 169, 49);"/>
      <path class="st9" d="M606.2,614.8c-0.6,0-1.3,0.2-1.9,0.1c0,0,0-0.1,0-0.1C604.9,614.8,605.6,614.8,606.2,614.8z" style="fill: rgb(233, 234, 233);"/>
      <path class="st9" d="M610,614.8c0,0,0,0.1,0,0.1c-0.5,0-1,0-1.5-0.1C609,614.8,609.5,614.8,610,614.8z" style="fill: rgb(233, 234, 233);"/>
      <path class="st10" d="M607.2,620.1c16.8,0,30.5,13.8,30.4,30.6c-0.1,16.4-13.5,30.5-30.9,30.3c-16.6-0.2-30.1-13.7-30.1-30.5 C576.7,633.4,590.6,620,607.2,620.1z M607.1,636.3c-5.8,0-11.5,0-17.3,0c-0.2,0-0.3,0-0.5,0c-0.2,0-0.3,0.1-0.3,0.3 c0,0.1,0,0.2,0,0.3c0.2,1.9,0.3,3.9,0.5,5.8c0.2,2.2,0.4,4.3,0.6,6.5c0.2,2.6,0.5,5.1,0.7,7.7c0.2,2.6,0.4,5.2,0.7,7.8 c0.2,2.7,0.5,5.3,0.7,8c0.1,0.6,0,0.6,0.6,0.7c4.6,1.3,9.2,2.5,13.7,3.8c0.4,0.1,0.7,0.1,1.1,0c2.2-0.6,4.4-1.2,6.5-1.8 c2.4-0.7,4.8-1.3,7.2-2c0.4-0.1,0.6-0.3,0.6-0.7c0.1-1.2,0.2-2.4,0.3-3.6c0.2-2.1,0.4-4.2,0.5-6.3c0.2-2.6,0.5-5.3,0.7-7.9 c0.1-1.6,0.3-3.3,0.4-4.9c0.2-2.7,0.5-5.3,0.7-8c0.2-1.7,0.3-3.3,0.5-5c0.1-1,0-0.8-0.7-0.8C618.7,636.3,612.9,636.3,607.1,636.3z M611.1,628.7c0,0,0-0.1,0-0.1c0.2,0,0.4,0,0.6,0c0.6,0,1.3,0,1.9,0c0.2,0,0.3-0.1,0.3-0.3c0-0.5,0-1,0-1.5c0-0.3-0.1-0.4-0.4-0.4 c-1.9,0-3.8,0-5.7,0c-0.3,0-0.4,0.1-0.4,0.4c0,0.6,0,1.1,0,1.7c0,0.3,0.1,0.5,0.4,0.7c0.6,0.5,1.3,0.9,1.9,1.4 c0.1,0.1,0.3,0.1,0.3,0.3c-0.1,0.1-0.2,0.1-0.3,0.1c-0.6,0-1.3,0-1.9,0c-0.3,0-0.4,0.1-0.4,0.4c0,0.4,0,0.8,0,1.3 c0,0.6-0.1,0.6,0.5,0.6c1.6,0,3.1,0,4.7,0c0.3,0,0.6,0,0.9,0c0.3,0,0.3-0.1,0.3-0.3c0-0.4,0-0.9,0-1.3c0-0.4-0.1-0.7-0.5-0.9 C612.8,630,611.9,629.3,611.1,628.7z M600.1,630.7c0,0.7,0,1.4,0,2.1c0,0.3,0.1,0.4,0.4,0.4c1.9,0,3.7,0,5.6,0 c0.3,0,0.4-0.1,0.4-0.4c0-0.9,0-1.8,0-2.7c0-1.1,0-2.1,0-3.2c0-0.5,0-0.5-0.5-0.5c-0.6,0-1.1,0-1.7,0c-0.3,0-0.4,0.1-0.4,0.4 c0,0.8,0,1.6,0,2.3c0,0.5,0,1.1,0,1.7C602.6,630.7,601.4,630.7,600.1,630.7z" style="fill: rgb(254, 254, 254);"/>
      <path class="st14" d="M607.1,636.3c5.8,0,11.6,0,17.4,0c0.7,0,0.8-0.2,0.7,0.8c-0.2,1.7-0.3,3.3-0.5,5c-0.2,2.7-0.5,5.3-0.7,8 c-0.1,1.6-0.3,3.3-0.4,4.9c-0.2,2.6-0.5,5.3-0.7,7.9c-0.2,2.1-0.4,4.2-0.5,6.3c-0.1,1.2-0.2,2.4-0.3,3.6c0,0.4-0.2,0.6-0.6,0.7 c-2.4,0.7-4.8,1.3-7.2,2c-2.2,0.6-4.4,1.2-6.5,1.8c-0.4,0.1-0.7,0.1-1.1,0c-4.6-1.3-9.2-2.6-13.7-3.8c-0.5-0.1-0.5-0.2-0.6-0.7 c-0.2-2.7-0.5-5.3-0.7-8c-0.2-2.6-0.4-5.2-0.7-7.8c-0.2-2.6-0.5-5.1-0.7-7.7c-0.2-2.2-0.4-4.3-0.6-6.5c-0.2-1.9-0.3-3.9-0.5-5.8 c0-0.1,0-0.2,0-0.3c0-0.2,0.1-0.3,0.3-0.3c0.2,0,0.3,0,0.5,0C595.6,636.3,601.4,636.3,607.1,636.3z M607.1,648.6 c0,5.4,0,10.9,0,16.3c-1.6-0.3-3.2-0.8-4.7-1.2c-0.3-0.1-0.3-0.2-0.3-0.5c-0.1-0.9-0.2-1.9-0.2-2.8c0-0.4,0-0.5-0.5-0.5 c-1.2,0-2.5,0-3.7,0c-0.4,0-0.5,0.1-0.4,0.5c0.2,2.1,0.4,4.2,0.6,6.2c0,0.3,0.1,0.5,0.5,0.6c0.1,0,0.2,0.1,0.4,0.1 c2.8,0.8,5.7,1.6,8.5,2.4c0,1.3,0,2.5,0,3.8c0,0.8,0,0.8,0.8,0.6c1.4-0.4,2.9-0.8,4.3-1.2c2.2-0.6,4.3-1.2,6.5-1.8 c0.3-0.1,0.4-0.2,0.4-0.5c0-0.2,0-0.4,0-0.6c0.1-0.7,0.1-1.4,0.2-2.1c0.1-0.6,0.2-1.3,0.2-1.9c0-0.7,0.1-1.5,0.2-2.2 c0.1-1.1,0.2-2.2,0.3-3.4c0.1-1.2,0.3-2.4,0.3-3.6c0-0.6,0-1.1,0.1-1.7c0.1-0.6,0.1-1.2,0.2-1.8c0.1-0.7,0.1-1.4,0.2-2.1 c0-0.6,0-1.1,0.1-1.7c0.1-0.7,0.1-1.5,0.2-2.2c0-0.6,0.1-1.3,0.2-1.9c0.1-1.2,0.2-2.3,0.3-3.5c0.1-0.8,0.1-1.6,0.2-2.4 c0-0.2-0.1-0.3-0.3-0.3c-0.1,0-0.2,0-0.3,0c-4.6,0-9.1,0-13.7,0c-0.6,0-0.6,0-0.6,0.6c0,1.3,0,2.6,0,4c-0.2,0-0.5,0-0.7,0 c-3.4,0-6.7,0-10.1,0c-0.5,0-0.6,0-0.5,0.6c0.1,1.2,0.2,2.4,0.3,3.6c0,0.4,0.2,0.5,0.5,0.4c0.1,0,0.3,0,0.4,0c2.9,0,5.9,0,8.8,0 C606.2,648.5,606.7,648.6,607.1,648.6z" style="fill: rgb(101, 169, 49);"/>
      <path class="st7" d="M611.1,628.7c0.8,0.6,1.6,1.3,2.5,1.9c0.3,0.2,0.5,0.5,0.5,0.9c0,0.4,0,0.9,0,1.3c0,0.2-0.1,0.3-0.3,0.3 c-0.3,0-0.6,0-0.9,0c-1.6,0-3.1,0-4.7,0c-0.6,0-0.5,0-0.5-0.6c0-0.4,0-0.8,0-1.3c0-0.3,0.1-0.4,0.4-0.4c0.6,0,1.3,0,1.9,0 c0.1,0,0.2,0,0.3-0.1c0-0.2-0.2-0.2-0.3-0.3c-0.6-0.5-1.3-1-1.9-1.4c-0.3-0.2-0.4-0.4-0.4-0.7c0-0.6,0-1.1,0-1.7 c0-0.3,0-0.4,0.4-0.4c1.9,0,3.8,0,5.7,0c0.3,0,0.4,0.1,0.4,0.4c0,0.5,0,1,0,1.5c0,0.2-0.1,0.3-0.3,0.3c-0.6,0-1.3,0-1.9,0 c-0.2,0-0.4,0-0.6,0C611.2,628.6,611.1,628.7,611.1,628.7z" style="fill: rgb(8, 8, 8);"/>
      <path class="st7" d="M600.1,630.7c1.3,0,2.5,0,3.8,0c0-0.6,0-1.1,0-1.7c0-0.8,0-1.6,0-2.3c0-0.3,0.1-0.4,0.4-0.4 c0.6,0,1.1,0,1.7,0c0.5,0,0.5,0,0.5,0.5c0,1.1,0,2.1,0,3.2c0,0.9,0,1.8,0,2.7c0,0.3-0.1,0.4-0.4,0.4c-1.9,0-3.7,0-5.6,0 c-0.3,0-0.4-0.1-0.4-0.4C600.1,632.2,600.1,631.5,600.1,630.7z" style="fill: rgb(8, 8, 8);"/>
      <path class="st15" d="M607.1,644c0-1.3,0-2.6,0-4c0-0.6,0-0.6,0.6-0.6c4.6,0,9.1,0,13.7,0c0.1,0,0.2,0,0.3,0 c0.2,0,0.3,0.1,0.3,0.3c-0.1,0.8-0.1,1.6-0.2,2.4c-0.1,1.2-0.2,2.3-0.3,3.5c-0.1,0.6-0.1,1.2-0.2,1.9c-0.1,0.7-0.1,1.5-0.2,2.2 c-0.1,0.6-0.1,1.1-0.1,1.7c-0.1,0.7-0.1,1.4-0.2,2.1c-0.1,0.6-0.1,1.2-0.2,1.8c-0.1,0.5-0.1,1.1-0.1,1.7c-0.1,1.2-0.2,2.4-0.3,3.6 c-0.1,1.1-0.2,2.2-0.3,3.4c-0.1,0.7-0.2,1.4-0.2,2.2c0,0.6-0.1,1.3-0.2,1.9c-0.1,0.7-0.1,1.4-0.2,2.1c0,0.2,0,0.4,0,0.6 c-0.1,0.2-0.2,0.4-0.4,0.5c-2.2,0.6-4.3,1.2-6.5,1.8c-1.4,0.4-2.9,0.8-4.3,1.2c-0.8,0.2-0.8,0.2-0.8-0.6c0-1.3,0-2.5,0-3.8 c0,0,0-0.1,0-0.1c0.7-0.1,1.4-0.4,2.1-0.5c2.2-0.6,4.4-1.2,6.6-1.8c0.4-0.1,0.6-0.2,0.6-0.7c0.1-1.3,0.2-2.5,0.3-3.8 c0.1-1.5,0.3-3.1,0.4-4.6c0.2-2.2,0.4-4.3,0.6-6.5c0.2-1.7,0.3-3.4,0.5-5.1c0.1-0.8,0.2-1.6,0.2-2.4c0-0.1,0-0.1-0.1-0.1 c-0.2,0-0.5,0-0.7,0c-3,0-6.1,0-9.1,0C608,644,607.6,644,607.1,644C607.1,644,607.1,644,607.1,644z" style="fill: rgb(141, 192, 39);"/>
      <path class="st15" d="M607.1,664.9c0-5.4,0-10.9,0-16.3l0-0.1c0.2,0,0.5,0,0.7,0c1.7,0,3.4,0,5.2,0c0.5,0,0.5,0,0.5,0.5 c-0.1,1.3-0.2,2.5-0.3,3.8c-0.2,2.3-0.4,4.5-0.6,6.8c-0.1,1.1-0.2,2.3-0.3,3.4c0,0.4-0.2,0.6-0.6,0.7 C610.1,664.1,608.6,664.5,607.1,664.9C607.1,664.9,607.1,664.9,607.1,664.9z" style="fill: rgb(141, 192, 39);"/>
      <path class="st9" d="M607.1,669.6C607.1,669.6,607.1,669.7,607.1,669.6c-2.9-0.7-5.7-1.5-8.5-2.3c-0.1,0-0.2-0.1-0.4-0.1 c-0.3,0-0.4-0.2-0.5-0.6c-0.2-2.1-0.4-4.2-0.6-6.2c0-0.4,0-0.5,0.4-0.5c1.2,0,2.5,0,3.7,0c0.4,0,0.4,0,0.5,0.5 c0.1,0.9,0.2,1.9,0.2,2.8c0,0.2,0.1,0.4,0.3,0.5c1.6,0.4,3.1,0.9,4.7,1.2c0,0,0,0,0,0.1C607.1,666.5,607.1,668,607.1,669.6z" style="fill: rgb(233, 234, 233);"/>
      <path class="st9" d="M607.1,648.6c-0.4,0-0.9,0-1.3,0c-2.9,0-5.9,0-8.8,0c-0.1,0-0.3,0-0.4,0c-0.3,0-0.5-0.1-0.5-0.4 c-0.1-1.2-0.2-2.4-0.3-3.6c0-0.5,0-0.6,0.5-0.6c3.4,0,6.7,0,10.1,0c0.2,0,0.5,0,0.7,0c0,0,0,0,0,0.1 C607.1,645.5,607.1,647,607.1,648.6L607.1,648.6z" style="fill: rgb(233, 234, 233);"/>
      <path class="st10" d="M607.1,648.5c0-1.5,0-3,0-4.5c0.5,0,1,0,1.4,0c3,0,6.1,0,9.1,0c0.2,0,0.5,0,0.7,0c0,0,0.1,0.1,0.1,0.1 c0,0.8-0.1,1.6-0.2,2.4c-0.1,1.7-0.3,3.4-0.5,5.1c-0.2,2.2-0.4,4.3-0.6,6.5c-0.1,1.5-0.3,3.1-0.4,4.6c-0.1,1.3-0.3,2.5-0.3,3.8 c0,0.5-0.2,0.6-0.6,0.7c-2.2,0.6-4.4,1.2-6.6,1.8c-0.7,0.2-1.4,0.4-2.1,0.5c0-1.6,0-3.1,0-4.7c1.5-0.4,3-0.8,4.5-1.2 c0.4-0.1,0.5-0.3,0.6-0.7c0.1-1.1,0.2-2.3,0.3-3.4c0.2-2.3,0.4-4.5,0.6-6.8c0.1-1.3,0.2-2.5,0.3-3.8c0-0.5,0-0.5-0.5-0.5 c-1.7,0-3.4,0-5.2,0C607.5,648.5,607.3,648.5,607.1,648.5z" style="fill: rgb(254, 254, 254);"/>
      <path class="st9" d="M618.4,644.1c0,0-0.1-0.1-0.1-0.1C618.4,644,618.4,644,618.4,644.1z" style="fill: rgb(233, 234, 233);"/>
    </g>
    <g>
      <path class="st16" d="M497.6,753.5c0,0,0,0.1,0,0.1c-1.6,0-3.1,0-4.7,0c0,0,0-0.1,0-0.1C494.5,753.5,496,753.5,497.6,753.5z" style="fill: rgb(245, 226, 6);"/>
      <path class="st9" d="M492.9,753.5c0,0,0,0.1,0,0.1c-0.4,0-0.8,0-1.1,0c0,0,0-0.1,0-0.1C492.2,753.5,492.5,753.5,492.9,753.5z" style="fill: rgb(233, 234, 233);"/>
      <path class="st17" d="M492.9,753.5c-0.4,0-0.7,0-1.1,0c-2-0.2-4-0.5-6-1.1c-4.9-1.3-9.4-3.6-13.3-6.8c-5.4-4.5-9.3-10-11.4-16.7 c-0.9-2.7-1.4-5.5-1.6-8.3c-0.4-5.2,0.3-10.3,2.2-15.2c1.7-4.5,4.3-8.6,7.6-12.1c4.9-5,10.7-8.4,17.5-10c3.2-0.8,6.4-1.1,9.7-0.9 c7.5,0.4,14.3,2.8,20.3,7.4c7.1,5.5,11.6,12.6,13.2,21.4c2.1,10.9-0.4,20.8-7.3,29.4c-5.3,6.6-12.3,10.8-20.7,12.5 c-1.5,0.3-2.9,0.6-4.4,0.6C496,753.5,494.5,753.5,492.9,753.5z M464.5,718c0.1,16.8,13.5,30.4,30.3,30.4 c17.3,0.1,30.6-14,30.7-30.3c0.1-16.8-13.5-30.4-30.1-30.6C478.7,687.3,464.6,700.7,464.5,718z" style="fill: rgb(230, 201, 2);"/>
      <path class="st10" d="M464.5,718c0.1-17.3,14.2-30.7,30.8-30.5c16.6,0.2,30.2,13.8,30.1,30.6c-0.1,16.3-13.3,30.4-30.7,30.3 C478,748.3,464.6,734.8,464.5,718z M495.1,703.6c-5.8,0-11.6,0-17.4,0c-0.1,0-0.3,0-0.4,0c-0.2,0-0.3,0.1-0.3,0.3 c0,0.5,0.1,1.1,0.1,1.6c0.1,1.6,0.3,3.2,0.4,4.8c0.2,2.2,0.4,4.5,0.6,6.7c0.1,1.6,0.3,3.1,0.4,4.7c0.2,2.1,0.4,4.3,0.6,6.4 c0.1,1.6,0.3,3.2,0.4,4.8c0.2,2.2,0.4,4.4,0.6,6.6c0.1,0.9,0.1,0.9,0.9,1.1c4.4,1.2,8.8,2.4,13.3,3.7c0.5,0.2,1,0.2,1.6,0 c2.7-0.8,5.3-1.5,8-2.2c1.9-0.5,3.7-1.1,5.6-1.5c0.4-0.1,0.5-0.3,0.5-0.6c0-0.4,0-0.8,0.1-1.1c0.2-2.1,0.4-4.3,0.6-6.4 c0.1-1.6,0.3-3.3,0.4-4.9c0.2-2.6,0.5-5.2,0.7-7.8c0.2-2.1,0.4-4.3,0.5-6.4c0.3-3,0.6-6.1,0.8-9.1c0.1-0.9,0.1-0.8-0.7-0.8 C506.6,703.6,500.8,703.6,495.1,703.6z M494,698.2c0.6,0,1.2,0,1.8,0c0.3,0,0.3,0.1,0.3,0.4c0,0.5,0,1,0,1.5 c0,0.2,0.1,0.4,0.3,0.3c0.6,0,1.1,0,1.7,0c0.3,0,0.3-0.1,0.3-0.4c0-2,0-4.1,0-6.1c0-0.2-0.1-0.3-0.3-0.3c-0.5,0-1.1,0-1.6,0 c-0.3,0-0.4,0.1-0.4,0.4c0,0.5,0,1,0,1.5c0,0.3-0.1,0.3-0.3,0.3c-0.5,0-1,0-1.4,0c-0.2,0-0.3-0.1-0.3-0.3c0-0.5,0-1,0-1.4 c0-0.4,0-0.5-0.4-0.5c-0.5,0-1,0-1.4,0c-0.4,0-0.4,0-0.4,0.5c0,1.5,0,2.9,0,4.4c0,0.5,0,1,0,1.6c0,0.3,0.1,0.4,0.4,0.4 c0.5,0,1.1,0,1.6,0c0.2,0,0.3-0.1,0.3-0.3C494,699.5,494,698.9,494,698.2z M484.6,693.8c0,0.2,0,0.3,0,0.5c0,1.6,0,3.2,0,4.8 c0,0.4,0,0.8,0,1.3c0.4,0.2,0.9,0.1,1.3,0.1c1,0,1,0,1-1c0-0.1,0-0.2,0-0.3c0-0.3,0.1-0.4,0.4-0.4c0.8,0,1.6,0,2.4,0 c0.3,0,0.5,0,0.4-0.4c0-1.4,0-2.9,0-4.3c0-0.4-0.2-0.4-0.4-0.4c-1.6,0-3.1,0-4.7,0C484.9,693.7,484.8,693.7,484.6,693.8z M499.8,697c0,1,0,2,0,3c0,0.3,0,0.4,0.4,0.4c0.5,0,1,0,1.6,0c0.3,0,0.4-0.1,0.4-0.4c0-0.2,0-0.4,0-0.6c0-0.7-0.1-0.7,0.7-0.7 c0.7,0,1.4,0,2.1,0c0.4,0,0.5,0,0.5-0.4c0-1.4,0-2.8,0-4.3c0-0.3-0.1-0.4-0.4-0.4c-1.6,0-3.1,0-4.7,0c-0.4,0-0.4,0-0.4,0.5 C499.8,695.1,499.8,696.1,499.8,697z" style="fill: rgb(254, 254, 254);"/>
      <path class="st17" d="M495.1,703.6c5.8,0,11.5,0,17.3,0c0.8,0,0.8-0.1,0.7,0.8c-0.3,3-0.6,6.1-0.8,9.1c-0.2,2.1-0.4,4.3-0.5,6.4 c-0.2,2.6-0.5,5.2-0.7,7.8c-0.1,1.6-0.3,3.3-0.4,4.9c-0.2,2.1-0.4,4.3-0.6,6.4c0,0.4-0.1,0.8-0.1,1.1c0,0.4-0.2,0.5-0.5,0.6 c-1.9,0.5-3.7,1-5.6,1.5c-2.7,0.7-5.3,1.5-8,2.2c-0.5,0.2-1,0.1-1.6,0c-4.4-1.2-8.8-2.5-13.3-3.7c-0.8-0.2-0.8-0.2-0.9-1.1 c-0.2-2.2-0.4-4.4-0.6-6.6c-0.1-1.6-0.3-3.2-0.4-4.8c-0.2-2.1-0.4-4.3-0.6-6.4c-0.1-1.6-0.3-3.1-0.4-4.7c-0.2-2.2-0.4-4.5-0.6-6.7 c-0.1-1.6-0.3-3.2-0.4-4.8c0-0.5-0.1-1.1-0.1-1.6c0-0.2,0.1-0.3,0.3-0.3c0.1,0,0.3,0,0.4,0C483.5,703.6,489.3,703.6,495.1,703.6z M495,741.5c0.3,0,0.5-0.1,0.8-0.2c2.2-0.6,4.3-1.2,6.5-1.8c1.5-0.4,3-0.8,4.5-1.2c0.2-0.1,0.3-0.2,0.3-0.4c0-0.3,0-0.6,0-0.9 c0.2-0.7,0.1-1.4,0.2-2.1c0.1-0.7,0.1-1.4,0.2-2.1c0-0.5,0-1,0.1-1.4c0.2-0.6,0.1-1.3,0.2-1.9c0.1-0.7,0.1-1.4,0.2-2.1 c0-0.6,0-1.2,0.1-1.7c0.2-1.1,0.2-2.3,0.3-3.4c0.1-0.7,0.1-1.3,0.2-2c0-0.5,0-1,0.1-1.5c0.2-1.2,0.2-2.4,0.3-3.5 c0.1-0.7,0.1-1.4,0.2-2.1c0-0.5,0-1,0.1-1.4c0.1-0.7,0.1-1.3,0.2-2c0.1-0.8,0.1-1.7,0.3-2.5c0.1-0.4,0-0.5-0.4-0.5 c-0.1,0-0.2,0-0.3,0c-4.4,0-8.9,0-13.3,0c-0.8,0-0.7,0-0.7,0.8c0,11.1,0,22.3,0,33.4C494.9,741.1,494.9,741.3,495,741.5z M484.6,724.3c0.2-0.2,0.5-0.3,0.7-0.3c2.6-1.1,5.3-2.3,7.9-3.4c0.4-0.2,0.6-0.4,0.6-0.8c0-0.9,0-1.9,0-2.8c0-0.2,0-0.4,0-0.6 c-0.2-0.1-0.3,0-0.4,0.1c-3.9,1.7-7.8,3.5-11.7,5.2c-0.4,0.2-0.4,0.4-0.4,0.7c0.1,1.4,0.3,2.7,0.4,4.1c0,0.5,0.2,0.7,0.6,0.9 c3.6,1.5,7.2,3.1,10.8,4.6c0.2,0.1,0.4,0.2,0.7,0.2c0.1-0.1,0.1-0.3,0.1-0.4c0-1,0-2.1,0-3.1c0-0.4-0.1-0.5-0.5-0.7 c-2.3-1-4.7-1.9-7-2.9C485.8,724.8,485.2,724.6,484.6,724.3z" style="fill: rgb(230, 201, 2);"/>
      <path class="st16" d="M495,741.5c-0.1-0.2-0.1-0.4-0.1-0.6c0-11.1,0-22.3,0-33.4c0-0.8,0-0.8,0.7-0.8c4.4,0,8.9,0,13.3,0 c0.1,0,0.2,0,0.3,0c0.4,0,0.5,0.1,0.4,0.5c-0.1,0.8-0.2,1.7-0.3,2.5c-0.1,0.7-0.1,1.3-0.2,2c-0.1,0.5-0.1,1-0.1,1.4 c0,0.7-0.1,1.4-0.2,2.1c-0.1,1.2-0.1,2.4-0.3,3.5c-0.1,0.5-0.1,1-0.1,1.5c0,0.7-0.1,1.3-0.2,2c-0.1,1.1-0.1,2.3-0.3,3.4 c-0.1,0.6-0.1,1.2-0.1,1.7c0,0.7-0.1,1.4-0.2,2.1c-0.1,0.6,0,1.3-0.2,1.9c-0.1,0.5-0.1,1-0.1,1.4c0,0.7-0.1,1.4-0.2,2.1 c-0.1,0.7,0,1.4-0.2,2.1c-0.1,0.3,0,0.6,0,0.9c0,0.2-0.1,0.3-0.3,0.4c-1.5,0.4-3,0.8-4.5,1.2c-2.2,0.6-4.3,1.2-6.5,1.8 C495.5,741.4,495.3,741.5,495,741.5z M499.5,726.2c0,1.2,0,2.3,0,3.5c0,0.6,0,0.6,0.6,0.6c0.8,0,1.6,0,2.3,0c0.6,0,0.6,0,0.6-0.6 c0-1.2,0-2.5,0-3.7c0-0.6,0-0.6,0.5-0.7c0.9-0.3,1.9-0.6,2.8-0.8c0.3-0.1,0.4-0.2,0.4-0.5c0.1-1.2,0.2-2.3,0.3-3.5 c0.2-1.9,0.3-3.7,0.5-5.6c0-0.5,0-0.5-0.4-0.6c-1.7-0.5-3.5-1.1-5.2-1.6c-0.2-0.1-0.5-0.1-0.7,0c-1.6,0.5-3.2,1-4.9,1.5 c-0.2,0.1-0.3,0.2-0.3,0.4c0,2,0,3.9,0,5.9c0,0.3,0.1,0.4,0.4,0.4c0.9,0,1.8,0,2.8,0c0.3,0,0.4-0.1,0.4-0.4c0-0.5,0-1.1,0-1.6 c0-0.4-0.2-1,0.1-1.3c0.2-0.3,0.8-0.2,1.2-0.4c0.5-0.2,0.9-0.2,1.4,0c0.3,0.1,0.5,0.1,0.8,0.2c0.5,0.1,0.5,0.1,0.5,0.6 c-0.1,0.9-0.2,1.9-0.2,2.8c0,0.3-0.2,0.4-0.4,0.5c-0.9,0.3-1.9,0.6-2.8,0.9c-0.5,0.2-0.5,0.2-0.5,0.7 C499.5,723.9,499.5,725.1,499.5,726.2z M499.5,733.2c0,0.6,0,1.1,0,1.7c0,0.4,0,0.4,0.4,0.3c0.9-0.2,1.8-0.5,2.7-0.7 c0.2-0.1,0.4-0.2,0.4-0.5c0-0.8,0-1.7,0-2.5c0-0.3-0.1-0.4-0.4-0.4c-0.9,0-1.8,0-2.7,0c-0.3,0-0.4,0.1-0.4,0.4 C499.5,732.1,499.5,732.6,499.5,733.2z" style="fill: rgb(245, 226, 6);"/>
      <path class="st9" d="M484.6,724.3c0.5,0.3,1.1,0.5,1.7,0.8c2.3,1,4.7,2,7,2.9c0.3,0.1,0.5,0.3,0.5,0.7c0,1,0,2.1,0,3.1 c0,0.1,0,0.3-0.1,0.4c-0.2,0-0.5-0.1-0.7-0.2c-3.6-1.5-7.2-3.1-10.8-4.6c-0.5-0.2-0.6-0.4-0.6-0.9c-0.1-1.4-0.2-2.8-0.4-4.1 c0-0.4,0-0.6,0.4-0.7c3.9-1.7,7.8-3.5,11.7-5.2c0.1,0,0.2-0.1,0.4-0.1c0.1,0.2,0,0.4,0,0.6c0,0.9,0,1.9,0,2.8 c0,0.5-0.2,0.7-0.6,0.8c-2.6,1.1-5.3,2.2-7.9,3.4C485.1,724,484.8,724.1,484.6,724.3z" style="fill: rgb(233, 234, 233);"/>
      <path class="st10" d="M499.5,726.2c0-1.2,0-2.3,0-3.5c0-0.5,0-0.5,0.5-0.7c0.9-0.3,1.9-0.6,2.8-0.9c0.2-0.1,0.4-0.2,0.4-0.5 c0.1-0.9,0.2-1.9,0.2-2.8c0-0.5,0-0.5-0.5-0.6c-0.3-0.1-0.5-0.1-0.8-0.2c-0.5-0.2-0.9-0.2-1.4,0c-0.4,0.1-0.9,0.1-1.2,0.4 c-0.3,0.3-0.1,0.8-0.1,1.3c0,0.5,0,1.1,0,1.6c0,0.3-0.1,0.4-0.4,0.4c-0.9,0-1.8,0-2.8,0c-0.3,0-0.4-0.1-0.4-0.4c0-2,0-3.9,0-5.9 c0-0.3,0.1-0.4,0.3-0.4c1.6-0.5,3.2-1,4.9-1.5c0.2-0.1,0.5,0,0.7,0c1.7,0.5,3.5,1.1,5.2,1.6c0.4,0.1,0.4,0.1,0.4,0.6 c-0.2,1.9-0.3,3.7-0.5,5.6c-0.1,1.2-0.2,2.3-0.3,3.5c0,0.3-0.1,0.4-0.4,0.5c-0.9,0.3-1.9,0.6-2.8,0.8c-0.5,0.2-0.5,0.2-0.5,0.7 c0,1.2,0,2.5,0,3.7c0,0.6,0,0.6-0.6,0.6c-0.8,0-1.6,0-2.3,0c-0.6,0-0.6,0-0.6-0.6C499.5,728.6,499.5,727.4,499.5,726.2z" style="fill: rgb(254, 254, 254);"/>
      <path class="st10" d="M499.5,733.2c0-0.6,0-1.1,0-1.7c0-0.3,0.1-0.4,0.4-0.4c0.9,0,1.8,0,2.7,0c0.3,0,0.4,0.1,0.4,0.4 c0,0.8,0,1.7,0,2.5c0,0.3-0.1,0.4-0.4,0.5c-0.9,0.2-1.8,0.5-2.7,0.7c-0.4,0.1-0.4,0.1-0.4-0.3 C499.5,734.3,499.5,733.7,499.5,733.2z" style="fill: rgb(254, 254, 254);"/>
    </g>
    <g>
      <path class="st12" d="M566.7,753.6c0,0,0-0.1,0-0.1c1.9,0,3.8,0,5.7,0c0,0,0,0.1,0,0.1C570.5,753.6,568.6,753.6,566.7,753.6z" style="fill: rgb(182, 118, 169);"/>
      <path class="st18" d="M572.3,753.5c-1.9,0-3.8,0-5.7,0c-2.2-0.1-4.3-0.5-6.4-1.1c-6.3-1.7-11.8-4.9-16.4-9.6 c-5.1-5.2-8.2-11.4-9.5-18.6c-0.5-2.7-0.7-5.5-0.5-8.3c0.5-8.6,3.7-16,9.5-22.3c5.2-5.6,11.6-9.2,19.2-10.7 c3.1-0.6,6.2-0.8,9.3-0.6c4.8,0.3,9.3,1.5,13.6,3.7c4.7,2.4,8.8,5.6,12.1,9.8c3.7,4.7,6.1,10,7.2,16c0.6,3.3,0.7,6.6,0.3,10 c-0.8,7-3.3,13.3-7.8,18.8c-5.2,6.3-11.8,10.4-19.8,12.3C575.7,753.1,574,753.4,572.3,753.5z M569.5,687.5 c-16.8,0-30.5,13.5-30.5,30.5c0,16.9,13.6,30.4,30.3,30.5c16.9,0.1,30.6-13.5,30.6-30.5C600,700.9,586.1,687.5,569.5,687.5z" style="fill: rgb(156, 74, 140);"/>
      <path class="st10" d="M569.5,687.5c16.6,0,30.5,13.4,30.5,30.5c0,17-13.7,30.6-30.6,30.5c-16.8-0.1-30.3-13.6-30.3-30.5 C539,701,552.7,687.5,569.5,687.5z M569.5,703.6c-3.1,0-6.2,0-9.2,0c-2.7,0-5.5,0-8.2,0c-0.6,0-0.6,0-0.6,0.6 c0.1,1.6,0.3,3.2,0.4,4.8c0.2,2.3,0.4,4.5,0.6,6.8c0.1,1.5,0.3,3.1,0.4,4.6c0.2,2.1,0.4,4.3,0.6,6.4c0.1,1.6,0.3,3.3,0.4,4.9 c0.2,2.2,0.4,4.5,0.6,6.7c0.1,0.6,0.1,1.1,0.1,1.7c0,0.3,0.1,0.4,0.4,0.5c0.1,0,0.2,0.1,0.4,0.1c4.6,1.3,9.1,2.5,13.7,3.8 c0.3,0.1,0.6,0.1,1,0c4.5-1.3,8.9-2.5,13.4-3.7c1-0.3,0.9-0.3,1-1.2c0.1-1.7,0.3-3.3,0.4-4.9c0.2-2.1,0.4-4.2,0.6-6.3 c0.2-2.1,0.4-4.3,0.6-6.5c0.3-3,0.6-6.1,0.8-9.1c0.3-2.8,0.5-5.6,0.7-8.5c0.1-0.9,0.1-0.8-0.7-0.8 C581.1,703.6,575.3,703.6,569.5,703.6z M573.4,701c-0.3-0.3-0.4-0.6-0.6-0.8c-0.4-0.4-0.5-0.8-0.5-1.3c0-1.6,0-3.2,0-4.8 c0-0.3,0-0.4-0.4-0.4c-1.6,0-3.3,0-4.9,0c-0.3,0-0.4,0.1-0.4,0.4c0,2,0,4,0,6c0,0.3,0.1,0.4,0.4,0.4c0.8,0,1.6,0,2.4,0 c0.3,0,0.5,0,0.7,0.3c0.2,0.2,0.4,0.3,0.7,0.3C571.6,701,572.4,701,573.4,701z M562.7,695.8c0.7,0,1.3,0,1.9,0 c0.5,0,0.5,0,0.5-0.5c0-0.4,0-0.8,0-1.2c0-0.4,0-0.4-0.5-0.4c-1.4,0-2.9,0-4.3,0c-0.8,0-0.7,0-0.8,0.8c-0.1,1,0.2,1.8,1,2.4 c0.5,0.4,0.8,0.9,1.2,1.3c-0.2,0.2-0.3,0.1-0.5,0.1c-0.4,0-0.8,0-1.3,0c-0.4,0-0.4,0-0.4,0.5c0,0.4,0,0.9,0,1.3 c0,0.3,0.1,0.4,0.4,0.4c1.6,0,3.3,0,4.9,0c0.3,0,0.4-0.1,0.3-0.4c0-0.4,0-0.9,0-1.3c0-0.3-0.1-0.5-0.3-0.8 C564.1,697.3,563.5,696.6,562.7,695.8z M573.9,697c0,1,0,2,0,3c0,0.3,0,0.4,0.4,0.4c1.6,0,3.2,0,4.8,0c0.3,0,0.4-0.1,0.4-0.4 c0-0.5,0-1,0-1.4c0-0.4-0.1-0.4-0.4-0.4c-0.8,0-1.5,0-2.3,0c-0.6,0-0.6,0-0.6-0.5c0-1.2,0-2.4,0-3.6c0-0.3-0.1-0.4-0.4-0.4 c-0.5,0-1,0-1.4,0c-0.4,0-0.5-0.1-0.5,0.5C574,695.1,573.9,696.1,573.9,697z" style="fill: rgb(254, 254, 254);"/>
      <path class="st18" d="M569.5,703.6c5.8,0,11.6,0,17.4,0c0.8,0,0.7-0.1,0.7,0.8c-0.2,2.8-0.5,5.6-0.7,8.5c-0.3,3-0.6,6-0.8,9.1 c-0.2,2.1-0.4,4.3-0.6,6.5c-0.2,2.1-0.4,4.2-0.6,6.3c-0.1,1.6-0.3,3.3-0.4,4.9c-0.1,1-0.1,1-1,1.2c-4.5,1.2-8.9,2.5-13.4,3.7 c-0.3,0.1-0.6,0.1-1,0c-4.6-1.3-9.1-2.5-13.7-3.8c-0.1,0-0.2-0.1-0.4-0.1c-0.3,0-0.4-0.2-0.4-0.5c0-0.6-0.1-1.1-0.1-1.7 c-0.2-2.2-0.4-4.5-0.6-6.7c-0.1-1.6-0.3-3.3-0.4-4.9c-0.2-2.1-0.4-4.3-0.6-6.4c-0.1-1.5-0.3-3.1-0.4-4.6c-0.2-2.3-0.4-4.5-0.6-6.8 c-0.1-1.6-0.3-3.2-0.4-4.8c0-0.6,0-0.6,0.6-0.6c2.7,0,5.5,0,8.2,0C563.4,703.6,566.4,703.6,569.5,703.6z M569.5,729.7 c0,3.9,0,7.8,0,11.7c0.2,0,0.4,0,0.6-0.1c1.3-0.4,2.6-0.7,3.9-1.1c2.4-0.6,4.7-1.3,7.1-1.9c0.5-0.1,0.5-0.2,0.5-0.7 c0-0.7,0.1-1.4,0.2-2.1c0.1-1.2,0.2-2.4,0.3-3.5c0.1-1.1,0.2-2.3,0.3-3.4c0.1-1.2,0.2-2.3,0.3-3.5c0.1-1.2,0.3-2.3,0.3-3.5 c0-0.5,0-1,0.1-1.6c0.1-0.8,0.1-1.6,0.2-2.4c0.1-0.6,0.1-1.3,0.2-1.9c0.1-1.1,0.2-2.2,0.3-3.4c0.1-1.2,0.2-2.4,0.3-3.6 c0-0.5,0-1,0.1-1.6c0.1-0.6,0.1-0.6-0.5-0.6c-0.1,0-0.1,0-0.2,0c-4.4,0-8.9,0-13.3,0c-0.1,0-0.3,0-0.4,0c-0.3,0-0.4,0.1-0.4,0.4 c0,0.1,0,0.3,0,0.4c0,2.2,0,4.5,0,6.7c-1,0-2,0-3,0c-0.5,0-0.5,0-0.5,0.5c0,4.8,0,9.6,0,14.4c0,0.5,0,0.5,0.5,0.5 C567.4,729.7,568.5,729.7,569.5,729.7z M558.2,717.6c0.5-0.2,1-0.3,1.5-0.5c0.4-0.1,0.7-0.1,1.1,0c1.1,0.4,2.3,0.7,3.4,1.1 c0.4,0.1,0.4,0.1,0.4-0.3c0-0.6,0-1.2,0-1.8c0-0.5,0-0.5-0.5-0.7c-0.7-0.2-1.5-0.4-2.2-0.7c-1.2-0.5-2.3-0.5-3.5-0.1 c-0.9,0.3-1.9,0.5-2.8,0.8c-0.5,0.1-0.5,0.1-0.5,0.7c0.1,0.6,0.1,1.1,0.1,1.7c0,0.3,0.1,0.6,0.3,0.9c1.6,2,3.1,4.1,4.7,6.1 c0.4,0.5,0.9,1.1,1.3,1.7c-0.4,0.1-0.7,0.2-1.1,0.3c-0.4,0.2-0.8,0.1-1.3,0c-0.9-0.3-1.8-0.6-2.6-0.8c-0.3-0.1-0.5-0.2-0.8-0.2 c0.1,0.7,0.2,1.5,0.2,2.2c0,0.3,0.2,0.4,0.4,0.5c1.1,0.3,2.1,0.7,3.2,1c0.2,0.1,0.4,0.1,0.6,0c1.3-0.4,2.7-0.7,4-1.1 c0.3-0.1,0.5-0.3,0.5-0.6c0-0.5,0-1.1,0-1.6c0-0.4-0.1-0.6-0.3-0.9c-1.6-2-3.2-4-4.7-6C559.1,718.8,558.6,718.3,558.2,717.6z" style="fill: rgb(156, 74, 140);"/>
      <path class="st12" d="M569.5,714.2c0-2.2,0-4.5,0-6.7c0-0.1,0-0.3,0-0.4c0-0.3,0.1-0.4,0.4-0.4c0.1,0,0.3,0,0.4,0 c4.4,0,8.9,0,13.3,0c0.1,0,0.1,0,0.2,0c0.6,0,0.6,0,0.5,0.6c-0.1,0.5-0.1,1-0.1,1.6c-0.1,1.2-0.2,2.4-0.3,3.6 c-0.1,1.1-0.2,2.2-0.3,3.4c-0.1,0.6-0.1,1.2-0.2,1.9c-0.1,0.8-0.1,1.6-0.2,2.4c-0.1,0.5-0.1,1-0.1,1.6c0,1.2-0.2,2.3-0.3,3.5 c-0.1,1.2-0.2,2.3-0.3,3.5c-0.1,1.1-0.2,2.3-0.3,3.4c-0.1,1.2-0.2,2.4-0.3,3.5c-0.1,0.7-0.1,1.4-0.2,2.1c0,0.6,0,0.6-0.5,0.7 c-2.4,0.7-4.7,1.3-7.1,1.9c-1.3,0.4-2.6,0.7-3.9,1.1c-0.2,0-0.3,0.1-0.6,0.1c0-3.9,0-7.8,0-11.7c0,0,0,0,0-0.1 c0.3,0.1,0.6,0,0.8,0.3c0.2,0.4,0.6,0.5,1,0.4c0.5,0,0.9,0,1.4,0c0.5,0,1,0,1.6,0c-0.3-0.5-0.6-0.8-0.9-1.2 c-0.3-0.3-0.4-0.6-0.4-1c0-4.3,0-8.7,0-13c0-0.2,0-0.3,0-0.5c0-0.2-0.1-0.4-0.3-0.4C571.6,714.3,570.5,714.2,569.5,714.2 C569.4,714.3,569.5,714.3,569.5,714.2z M574.6,721.9c0,0.5,0,1,0,1.4c0,1.9,0,3.9,0,5.8c0,0.5,0,0.5,0.5,0.5c0.6,0,1.1,0,1.7,0 c1.3,0,2.6,0,3.8,0c0.6,0,0.6,0,0.6-0.6c0-0.5,0.1-1.1,0.1-1.6c0.1-0.6,0.1-0.6-0.5-0.6c-0.9,0-1.9,0-2.8,0c-0.6,0-0.6,0-0.6-0.6 c0-0.1,0-0.2,0-0.3c0-3.6,0-7.3,0-10.9c0-0.2,0-0.3,0-0.5c0-0.2-0.1-0.3-0.3-0.3c-0.8,0-1.5,0-2.3,0c-0.2,0-0.3,0.1-0.3,0.3 c0,0.1,0,0.3,0,0.4C574.6,717.3,574.6,719.6,574.6,721.9z" style="fill: rgb(182, 118, 169);"/>
      <path class="st9" d="M558.2,717.6c0.4,0.7,0.9,1.2,1.4,1.8c1.6,2,3.1,4,4.7,6c0.2,0.3,0.3,0.6,0.3,0.9c0,0.5,0,1.1,0,1.6 c0,0.4-0.1,0.5-0.5,0.6c-1.3,0.3-2.7,0.7-4,1.1c-0.2,0.1-0.4,0-0.6,0c-1.1-0.3-2.1-0.7-3.2-1c-0.3-0.1-0.4-0.2-0.4-0.5 c0-0.7-0.1-1.4-0.2-2.2c0.3-0.1,0.6,0.1,0.8,0.2c0.9,0.3,1.8,0.5,2.6,0.8c0.4,0.1,0.8,0.2,1.3,0c0.3-0.1,0.7-0.2,1.1-0.3 c-0.4-0.7-0.8-1.2-1.3-1.7c-1.5-2-3.1-4.1-4.7-6.1c-0.2-0.3-0.3-0.5-0.3-0.9c0-0.6-0.1-1.1-0.1-1.7c0-0.5-0.1-0.5,0.5-0.7 c0.9-0.2,1.9-0.4,2.8-0.8c1.2-0.4,2.4-0.4,3.5,0.1c0.7,0.3,1.4,0.4,2.2,0.7c0.5,0.1,0.5,0.2,0.5,0.7c0,0.6,0,1.2,0,1.8 c0,0.4-0.1,0.4-0.4,0.3c-1.1-0.3-2.3-0.7-3.4-1.1c-0.4-0.1-0.7-0.1-1.1,0C559.2,717.3,558.8,717.5,558.2,717.6z" style="fill: rgb(233, 234, 233);"/>
      <path class="st9" d="M569.5,729.7c-1,0-2,0-3,0c-0.5,0-0.5,0-0.5-0.5c0-4.8,0-9.6,0-14.4c0-0.5,0-0.5,0.5-0.5c1,0,2,0,3,0 c0,0,0,0,0,0.1c0,0.6,0,1.1,0,1.7c0,0.3,0,0.7,0.1,1c0,0-0.1,0-0.1,0c-0.5-0.1-0.5,0.1-0.5,0.5c0,3,0,6,0,9c0,0.4,0,0.4,0.5,0.5 C569.5,727.9,569.5,728.8,569.5,729.7C569.4,729.7,569.5,729.7,569.5,729.7z" style="fill: rgb(233, 234, 233);"/>
      <path class="st10" d="M574.6,721.9c0-2.3,0-4.6,0-6.9c0-0.1,0-0.3,0-0.4c0-0.2,0.1-0.3,0.3-0.3c0.8,0,1.5,0,2.3,0 c0.2,0,0.3,0.1,0.3,0.3c0,0.2,0,0.3,0,0.5c0,3.6,0,7.3,0,10.9c0,0.1,0,0.2,0,0.3c0,0.6,0,0.6,0.6,0.6c0.9,0,1.9,0,2.8,0 c0.6,0,0.6,0,0.5,0.6c0,0.5-0.1,1.1-0.1,1.6c0,0.6,0,0.6-0.6,0.6c-1.3,0-2.6,0-3.8,0c-0.6,0-1.1,0-1.7,0c-0.5,0-0.5,0-0.5-0.5 c0-1.9,0-3.9,0-5.8C574.6,722.9,574.6,722.4,574.6,721.9z" style="fill: rgb(254, 254, 254);"/>
      <path class="st10" d="M569.4,729.7c0-0.9,0-1.8,0-2.7c0,0,0.1,0,0.1-0.1c0.2,0,0.4,0,0.4-0.2c0-0.1,0-0.3,0-0.4c0-2.8,0-5.7,0-8.5 c0-0.1,0-0.3,0-0.4c0-0.3-0.2-0.3-0.4-0.4c-0.1-0.3-0.1-0.6-0.1-1c0-0.6,0-1.1,0-1.7c1.1-0.1,2.1,0,3.2,0c0.3,0,0.3,0.1,0.3,0.4 c0,0.2,0,0.3,0,0.5c0,4.3,0,8.7,0,13c0,0.4,0.1,0.7,0.4,1c0.3,0.3,0.7,0.7,0.9,1.2c-0.6,0-1.1,0-1.6,0c-0.5,0-0.9,0-1.4,0 c-0.4,0-0.8-0.1-1-0.4C570,729.6,569.7,729.8,569.4,729.7z" style="fill: rgb(254, 254, 254);"/>
      <path class="st18" d="M569.6,726.9c0,0-0.1,0-0.1,0.1c-0.5-0.1-0.5-0.1-0.5-0.5c0-3,0-6,0-9c0-0.4,0-0.6,0.5-0.5c0,3,0,6,0,8.9 C569.5,726.3,569.5,726.6,569.6,726.9z" style="fill: rgb(156, 74, 140);"/>
      <path class="st12" d="M569.6,726.9c-0.1-0.3-0.1-0.6-0.1-1c0-3,0-6,0-8.9c0,0,0.1,0,0.1,0c0.2,0,0.4,0.1,0.4,0.4 c0,0.1,0,0.3,0,0.4c0,2.8,0,5.7,0,8.5c0,0.1,0,0.3,0,0.4C570,727,569.8,727,569.6,726.9z" style="fill: rgb(182, 118, 169);"/>
    </g>
    <g>
      <path class="st19" d="M442.6,616.5c4.2,0.3,8.3,1.3,12.2,3.2c10.2,4.9,16.8,12.9,19.7,23.8c0.8,3.1,1.1,6.2,1,9.4 c-0.4,16.2-11.4,29.4-26,33.5c-3.9,1.1-7.9,1.5-11.9,1.3c-12.9-0.8-23.8-8.3-29.4-19c-2-3.9-3.3-8-3.9-12.3 c-0.1-0.7-0.2-1.3-0.2-2c0-0.1,0-0.2-0.1-0.3c0-1.1,0-2.3,0-3.4c0.1-0.5,0.2-1,0.2-1.5c0.1-0.8,0.2-1.6,0.3-2.4 c0.6-4,1.8-7.7,3.6-11.2c3.7-7,9.1-12.3,16.3-15.7c3.7-1.8,7.6-2.9,11.6-3.3c0.6-0.1,1.3,0,1.9-0.2c1,0,2,0,3,0 C441.5,616.6,442,616.5,442.6,616.5z M439.8,621.6c-16.5-0.1-30.4,13.3-30.5,30.3c-0.1,16.8,13.4,30.5,30.1,30.6 c17.4,0.2,30.8-13.9,30.9-30.3C470.3,635.4,456.6,621.6,439.8,621.6z" style="fill: rgb(229, 80, 41);"/>
      <path class="st9" d="M404,649.2c0.1,0,0.1,0,0.2,0c0.1,0.5-0.1,1-0.2,1.5C404,650.2,404,649.7,404,649.2z" style="fill: rgb(233, 234, 233);"/>
      <path class="st12" d="M442.6,616.5c-0.6,0-1.1,0.1-1.7-0.1c0.6,0,1.2,0,1.8,0C442.6,616.4,442.6,616.5,442.6,616.5z" style="fill: rgb(182, 118, 169);"/>
      <path class="st10" d="M439.8,621.6c16.8,0,30.5,13.8,30.4,30.6c-0.1,16.4-13.5,30.5-30.9,30.3c-16.7-0.2-30.2-13.9-30.1-30.6 C409.4,634.9,423.4,621.5,439.8,621.6z M457.9,638c-0.3-0.1-0.5-0.1-0.8-0.1c-11.6,0-23.1,0-34.7,0c-0.1,0-0.2,0-0.3,0 c-0.5,0-0.5,0-0.4,0.5c0.1,1,0.2,2,0.3,2.9c0.2,2.6,0.5,5.1,0.7,7.7c0.2,2.1,0.4,4.3,0.6,6.4c0.3,3.5,0.6,7.1,1,10.6 c0.3,2.8,0.5,5.6,0.7,8.4c0,0.4,0.2,0.5,0.5,0.6c4.6,1.3,9.3,2.6,13.9,3.9c0.3,0.1,0.5,0.1,0.8,0c4.7-1.3,9.3-2.6,14-3.9 c0.4-0.1,0.5-0.3,0.5-0.6c0.1-1.6,0.3-3.2,0.4-4.8c0.2-2.6,0.5-5.3,0.7-7.9c0.2-2.1,0.4-4.2,0.5-6.3c0.2-2.7,0.5-5.3,0.7-8 c0.2-1.7,0.3-3.4,0.5-5.1C457.6,640.9,457.7,639.5,457.9,638z M445.6,631.6c0,0,0.1,0,0.1,0c0,0.2,0,0.4,0,0.6c0,0.7,0,1.4,0,2.1 c0,0.3,0.1,0.4,0.4,0.4c0.5,0,1,0,1.6,0c0.3,0,0.4-0.1,0.4-0.4c0-0.5,0-0.9,0-1.4c0-1.5,0-3,0-4.5c0-0.5,0-0.5-0.5-0.5 c-0.5,0-1,0-1.5,0c-0.3,0-0.5,0.1-0.6,0.4c-0.3,0.5-0.7,1.1-1,1.6c-0.1,0.1-0.1,0.3-0.3,0.3c-0.4-0.6-0.8-1.3-1.2-1.9 c-0.1-0.2-0.3-0.3-0.6-0.3c-0.5,0-1.1,0-1.6,0c-0.3,0-0.4,0.1-0.4,0.4c0,2,0,4,0,6c0,0.3,0.1,0.4,0.4,0.4c0.5,0,1,0,1.6,0 c0.3,0,0.4-0.1,0.4-0.4c0-0.5,0-1,0-1.5c0-0.4,0-0.8,0-1.2c0,0,0.1,0,0.1,0c0.5,0.7,1,1.4,1.5,2.2 C444.7,633.1,445.1,632.3,445.6,631.6z M431.5,631.3c0-1,0-2,0-3c0-0.3-0.1-0.4-0.4-0.4c-0.5,0-1.1,0-1.6,0 c-0.2,0-0.3,0.1-0.3,0.3c0,0.5,0,1,0,1.6c0,0.3-0.1,0.4-0.4,0.4c-0.4,0-0.8,0-1.3,0c-0.3,0-0.5-0.1-0.4-0.4c0-0.5,0-1,0-1.5 c0-0.2-0.1-0.3-0.3-0.3c-0.6,0-1.1,0-1.7,0c-0.2,0-0.3,0.1-0.3,0.3c0,0.3,0,0.5,0,0.8c0,1.8,0,3.5,0,5.3c0,0.4,0,0.4,0.4,0.5 c0.5,0,1,0,1.5,0c0.3,0,0.4-0.1,0.4-0.4c0-0.5,0-1,0-1.4c0-0.4,0-0.4,0.5-0.4c0.4,0,0.8,0,1.2,0c0.3,0,0.5,0.1,0.4,0.4 c0,0.5,0,1,0,1.5c0,0.2,0.1,0.3,0.3,0.3c0.5,0,1,0,1.6,0c0.3,0,0.4-0.1,0.4-0.4C431.5,633.3,431.5,632.3,431.5,631.3z M437,634.7 c0.1-0.2,0.1-0.4,0.1-0.7c0-1.1,0-2.1,0-3.2c0-0.7-0.1-0.6,0.6-0.7c0.3,0,0.7,0,1,0c0.3,0,0.4-0.1,0.4-0.4c0-0.5,0-0.9,0-1.4 c0-0.4,0-0.5-0.4-0.5c-1.6,0-3.2,0-4.8,0c-0.3,0-0.8-0.2-1,0.1c-0.2,0.2-0.1,0.6-0.1,1c0,0.4-0.2,0.9,0.1,1.1 c0.3,0.3,0.7,0.1,1.1,0.1c0.8,0,0.8,0,0.8,0.8c0,1.1,0,2.1,0,3.2c0,0.5,0,0.5,0.5,0.5C435.8,634.7,436.4,634.7,437,634.7z M449.2,631.3c0,1,0,2,0,3c0,0.5,0,0.5,0.5,0.5c0.4,0,0.7,0,1.1,0c1.2,0,2.4,0,3.6,0c0.3,0,0.4-0.1,0.4-0.4c0-0.5,0-0.9,0-1.4 c0-0.3-0.1-0.4-0.4-0.4c-0.7,0-1.5,0-2.2,0c-0.7,0-0.6,0.1-0.6-0.6c0-0.1,0-0.2,0-0.3c0-1.1,0-2.2,0-3.3c0-0.3-0.1-0.4-0.4-0.4 c-0.5,0-1,0-1.6,0c-0.3,0-0.4,0.1-0.4,0.4C449.3,629.3,449.2,630.3,449.2,631.3z" style="fill: rgb(254, 254, 254);"/>
      <path class="st19" d="M457.9,638c-0.1,1.5-0.3,3-0.4,4.4c-0.1,1.7-0.3,3.4-0.5,5.1c-0.2,2.7-0.5,5.3-0.7,8 c-0.2,2.1-0.4,4.2-0.5,6.3c-0.2,2.6-0.5,5.3-0.7,7.9c-0.1,1.6-0.3,3.2-0.4,4.8c0,0.4-0.2,0.5-0.5,0.6c-4.7,1.3-9.3,2.6-14,3.9 c-0.3,0.1-0.5,0.1-0.8,0c-4.6-1.3-9.3-2.6-13.9-3.9c-0.4-0.1-0.5-0.3-0.5-0.6c-0.2-2.8-0.5-5.6-0.7-8.4c-0.3-3.5-0.6-7.1-1-10.6 c-0.2-2.1-0.4-4.3-0.6-6.4c-0.2-2.6-0.5-5.1-0.7-7.7c-0.1-1-0.2-2-0.3-2.9c0-0.4,0-0.4,0.4-0.5c0.1,0,0.2,0,0.3,0 c11.6,0,23.1,0,34.7,0C457.3,637.9,457.6,637.8,457.9,638z M439.8,666.3c-0.1,0-0.1,0-0.2,0c-1.5-0.4-3-0.8-4.5-1.2 c-0.3-0.1-0.3-0.2-0.3-0.5c-0.1-0.9-0.2-1.7-0.2-2.6c-0.1-0.7,0-0.7-0.7-0.7c-1.1,0-2.2,0-3.3,0c-0.6,0-0.6,0-0.6,0.7 c0.1,0.9,0.2,1.9,0.3,2.8c0.1,1.1,0.2,2.2,0.3,3.2c0,0.3,0.2,0.5,0.5,0.6c1,0.3,2,0.5,3,0.8c2,0.5,4,1.1,5.9,1.6c0,1.3,0,2.6,0,4 c0,0.7,0,0.7,0.7,0.5c0.2-0.1,0.4-0.1,0.7-0.2c1.7-0.5,3.3-0.9,5-1.4c1.7-0.5,3.5-0.9,5.2-1.4c0.3-0.1,0.4-0.2,0.5-0.5 c0.1-0.5,0-1,0.1-1.4c0.1-0.7,0.1-1.4,0.2-2.1c0.1-0.7,0.2-1.4,0.2-2.1c0-0.5,0-1,0.1-1.5c0.2-0.7,0.1-1.4,0.2-2.1 c0.1-0.7,0.2-1.4,0.2-2.1c0-0.5,0-1,0.1-1.6c0.1-0.7,0.1-1.5,0.2-2.2c0.1-0.7,0.1-1.3,0.2-2c0.1-1.1,0.2-2.2,0.3-3.4 c0.1-1.2,0.2-2.4,0.3-3.6c0-0.5,0.1-1,0.1-1.6c0.1-0.8,0.2-1.7,0.2-2.5c0-0.2,0-0.3,0-0.5c0.1-0.7,0.2-1.4,0.2-2.2 c0-0.5,0-0.5-0.5-0.5c-4.6,0-9.1,0-13.7,0c-0.5,0-0.5,0-0.5,0.6c0,1.3,0,2.6,0,4c-0.8,0-1.6,0-2.4,0c-2.8,0-5.7,0-8.5,0 c-0.5,0-0.5,0-0.5,0.5c0.1,1.2,0.2,2.4,0.3,3.6c0.3,3,0.6,6,0.8,9c0,0.5,0,0.5,0.6,0.5c2.6,0,5.3,0,7.9,0c0.6,0,1.1,0,1.7,0 C439.8,661.6,439.8,664,439.8,666.3z" style="fill: rgb(229, 80, 41);"/>
      <path class="st7" d="M445.6,631.6c-0.5,0.7-0.9,1.4-1.5,2.2c-0.5-0.8-1-1.5-1.5-2.2c0,0-0.1,0-0.1,0c0,0.4,0,0.8,0,1.2 c0,0.5,0,1,0,1.5c0,0.3-0.1,0.4-0.4,0.4c-0.5,0-1,0-1.6,0c-0.3,0-0.4-0.1-0.4-0.4c0-2,0-4,0-6c0-0.3,0.1-0.4,0.4-0.4 c0.5,0,1.1,0,1.6,0c0.3,0,0.5,0.1,0.6,0.3c0.4,0.6,0.8,1.3,1.2,1.9c0.2,0,0.2-0.2,0.3-0.3c0.3-0.5,0.7-1.1,1-1.6 c0.2-0.3,0.3-0.4,0.6-0.4c0.5,0,1,0,1.5,0c0.5,0,0.5,0,0.5,0.5c0,1.5,0,3,0,4.5c0,0.5,0,0.9,0,1.4c0,0.3-0.1,0.4-0.4,0.4 c-0.5,0-1,0-1.6,0c-0.3,0-0.4-0.1-0.4-0.4c0-0.7,0-1.4,0-2.1c0-0.2,0-0.4,0-0.6C445.7,631.6,445.7,631.6,445.6,631.6z" style="fill: rgb(8, 8, 8);"/>
      <path class="st7" d="M431.5,631.3c0,1,0,2,0,3c0,0.3-0.1,0.4-0.4,0.4c-0.5,0-1,0-1.6,0c-0.2,0-0.3-0.1-0.3-0.3c0-0.5,0-1,0-1.5 c0-0.3-0.1-0.4-0.4-0.4c-0.4,0-0.8,0-1.2,0c-0.5,0-0.5,0-0.5,0.4c0,0.5,0,1,0,1.4c0,0.3-0.1,0.4-0.4,0.4c-0.5,0-1,0-1.5,0 c-0.4,0-0.4,0-0.4-0.5c0-1.8,0-3.5,0-5.3c0-0.3,0-0.5,0-0.8c0-0.2,0.1-0.3,0.3-0.3c0.6,0,1.1,0,1.7,0c0.3,0,0.3,0.1,0.3,0.3 c0,0.5,0,1,0,1.5c0,0.3,0.1,0.4,0.4,0.4c0.4,0,0.8,0,1.3,0c0.3,0,0.4-0.1,0.4-0.4c0-0.5,0-1,0-1.6c0-0.2,0.1-0.3,0.3-0.3 c0.5,0,1.1,0,1.6,0c0.3,0,0.4,0.1,0.4,0.4C431.5,629.3,431.5,630.3,431.5,631.3z" style="fill: rgb(8, 8, 8);"/>
      <path class="st7" d="M437,634.7c-0.6,0-1.2,0-1.7,0c-0.5,0-0.5,0-0.5-0.5c0-1.1,0-2.1,0-3.2c0-0.8,0-0.8-0.8-0.8 c-0.4,0-0.9,0.2-1.1-0.1c-0.2-0.2-0.1-0.7-0.1-1.1c0-0.3-0.1-0.8,0.1-1c0.2-0.2,0.7-0.1,1-0.1c1.6,0,3.2,0,4.8,0 c0.4,0,0.4,0,0.4,0.5c0,0.5,0,0.9,0,1.4c0,0.3-0.1,0.5-0.4,0.4c-0.3,0-0.7,0-1,0c-0.7,0-0.6-0.1-0.6,0.7c0,1.1,0,2.1,0,3.2 C437,634.3,437.1,634.5,437,634.7z" style="fill: rgb(8, 8, 8);"/>
      <path class="st7" d="M449.2,631.3c0-1,0-2,0-3c0-0.3,0.1-0.4,0.4-0.4c0.5,0,1,0,1.6,0c0.3,0,0.4,0.1,0.4,0.4c0,1.1,0,2.2,0,3.3 c0,0.1,0,0.2,0,0.3c0,0.7-0.1,0.6,0.6,0.6c0.7,0,1.5,0,2.2,0c0.3,0,0.4,0.1,0.4,0.4c0,0.5,0,0.9,0,1.4c0,0.3-0.1,0.4-0.4,0.4 c-1.2,0-2.4,0-3.6,0c-0.4,0-0.7,0-1.1,0c-0.5,0-0.5,0-0.5-0.5C449.2,633.3,449.2,632.3,449.2,631.3z" style="fill: rgb(8, 8, 8);"/>
      <path class="st20" d="M439.8,645.5c0-1.3,0-2.6,0-4c0-0.6,0-0.6,0.5-0.6c4.6,0,9.1,0,13.7,0c0.5,0,0.5,0,0.5,0.5 c0,0.7-0.1,1.5-0.2,2.2c0,0.2,0,0.3,0,0.5c0,0.8-0.1,1.7-0.2,2.5c-0.1,0.5-0.1,1-0.1,1.6c-0.1,1.2-0.2,2.4-0.3,3.6 c-0.1,1.1-0.2,2.2-0.3,3.4c-0.1,0.7-0.1,1.3-0.2,2c-0.1,0.7-0.1,1.5-0.2,2.2c-0.1,0.5-0.1,1-0.1,1.6c0,0.7-0.1,1.4-0.2,2.1 c-0.1,0.7,0,1.4-0.2,2.1c-0.1,0.5-0.1,1-0.1,1.5c0,0.7-0.1,1.4-0.2,2.1c-0.1,0.7,0,1.4-0.2,2.1c-0.1,0.5-0.1,1-0.1,1.4 c0,0.3-0.2,0.4-0.5,0.5c-1.7,0.5-3.5,0.9-5.2,1.4c-1.7,0.5-3.3,0.9-5,1.4c-0.2,0.1-0.4,0.1-0.7,0.2c-0.7,0.2-0.7,0.2-0.7-0.5 c0-1.3,0-2.6,0-4c0.1,0,0.2-0.1,0.3-0.1c0.7-0.1,1.4-0.4,2.1-0.5c2.1-0.6,4.3-1.2,6.4-1.8c0.3-0.1,0.5-0.1,0.5-0.5 c0.1-1,0.2-2,0.3-3c0.2-1.7,0.3-3.3,0.5-5c0.1-1.6,0.3-3.3,0.4-4.9c0.1-0.6,0-0.6-0.6-0.6c-1.4,0-2.9,0-4.3,0c-1.8,0-3.7,0-5.5,0 c0,0-0.1,0-0.1-0.1c0.1-0.2,0.1-0.4,0.1-0.7c0-1.3,0-2.5,0-3.8c0,0,0,0,0-0.1c0.1,0,0.3,0,0.4,0c3.3,0,6.6,0,9.9,0 c0.1,0,0.3,0,0.4,0c0.1,0,0.1-0.1,0.1-0.2c0,0,0-0.1,0-0.1c0.2-1.3,0.3-2.7,0.4-4c0-0.1,0-0.1-0.1-0.1c-0.2,0-0.5,0-0.7,0 c-2.8,0-5.6,0-8.5,0C441.2,645.5,440.5,645.5,439.8,645.5C439.8,645.5,439.8,645.5,439.8,645.5z" style="fill: rgb(235, 102, 44);"/>
      <path class="st9" d="M439.8,645.5C439.8,645.5,439.8,645.5,439.8,645.5c0,1.6,0,3.1,0,4.6c0,0,0,0,0,0.1c-2,0-4,0-6,0 c-0.3,0-0.4,0.1-0.3,0.4c0.1,0.8,0.1,1.6,0.2,2.4c0.1,0.6,0,1.1,0.2,1.7c0,0.1,0,0.1,0.1,0.1c1.9,0,3.8,0,5.7,0c0,0,0.1,0,0.1,0.1 c0,1.5,0,3,0,4.5l0,0.1c-0.6,0-1.1,0-1.7,0c-2.6,0-5.3,0-7.9,0c-0.5,0-0.5,0-0.6-0.5c-0.3-3-0.6-6-0.8-9c-0.1-1.2-0.2-2.4-0.3-3.6 c0-0.5,0-0.5,0.5-0.5c2.8,0,5.7,0,8.5,0C438.2,645.5,439,645.5,439.8,645.5z" style="fill: rgb(233, 234, 233);"/>
      <path class="st9" d="M440.1,671c-0.1,0-0.2,0.1-0.3,0.1c-2-0.5-4-1.1-5.9-1.6c-1-0.3-2-0.6-3-0.8c-0.3-0.1-0.4-0.2-0.5-0.6 c-0.1-1.1-0.2-2.2-0.3-3.2c-0.1-0.9-0.2-1.9-0.3-2.8c-0.1-0.7-0.1-0.7,0.6-0.7c1.1,0,2.2,0,3.3,0c0.7,0,0.7,0,0.7,0.7 c0.1,0.9,0.2,1.7,0.2,2.6c0,0.2,0.1,0.4,0.3,0.5c1.5,0.4,3,0.8,4.5,1.2c0.1,0,0.1,0,0.2,0c0.1,0,0.2,0,0.2,0 c-0.1,0.1-0.3,0.2-0.3,0.4c0,1.3,0,2.6,0,3.9C439.8,670.9,439.9,671,440.1,671z" style="fill: rgb(233, 234, 233);"/>
      <path class="st20" d="M440,666.4c-0.1,0-0.2,0-0.2,0c0-2.4,0-4.8,0-7.2c0,0,0-0.1,0-0.1c0.6,0,1.2,0,1.8,0c1.2,0,2.5,0,3.7,0l0,0 c-0.2,1.7-0.3,3.4-0.5,5.1c-0.1,0.8-0.1,0.8-0.8,1C442.7,665.6,441.4,666,440,666.4z" style="fill: rgb(235, 102, 44);"/>
      <path class="st10" d="M440,666.4c1.3-0.4,2.7-0.7,4-1.1c0.7-0.2,0.8-0.2,0.8-1c0.2-1.7,0.3-3.4,0.5-5.1c0,0,0,0,0,0c0,0,0,0,0,0 c0,0,0,0-0.1,0.1c-1.2,0-2.5,0-3.7,0c-0.6,0-1.2,0-1.8,0c0-1.5,0-3,0-4.5c1.8,0,3.7,0,5.5,0c1.4,0,2.9,0,4.3,0 c0.6,0,0.6,0,0.6,0.6c-0.1,1.7-0.3,3.3-0.4,4.9c-0.1,1.7-0.3,3.3-0.5,5c-0.1,1-0.2,2-0.3,3c0,0.4-0.3,0.4-0.5,0.5 c-2.1,0.6-4.3,1.2-6.4,1.8c-0.7,0.2-1.4,0.4-2.1,0.5c-0.2,0-0.3-0.1-0.3-0.3c0-1.3,0-2.6,0-3.9C439.8,666.6,439.9,666.5,440,666.4 z" style="fill: rgb(254, 254, 254);"/>
      <path class="st21" d="M439.8,650c0-1.5,0-3,0-4.5c0.7,0,1.4,0,2.1,0c2.8,0,5.6,0,8.5,0c0.2,0,0.5,0,0.7,0c0,0,0.1,0.1,0.1,0.1 c-0.1,1.3-0.2,2.7-0.4,4c0,0,0,0,0,0c0,0,0,0.1,0,0.1c0,0.1,0,0.2-0.1,0.2c-0.1,0-0.3,0-0.4,0c-3.3,0-6.6,0-9.9,0 C440.1,650.1,439.9,650,439.8,650z" style="fill: rgb(255, 255, 255);"/>
      <path class="st19" d="M433.9,654.5c-0.2-0.5-0.1-1.1-0.2-1.7c-0.1-0.8-0.1-1.6-0.2-2.4c0-0.3,0.1-0.4,0.3-0.4c2,0,4,0,6,0 c0,1.3,0,2.5,0,3.8c0,0.2,0,0.5-0.1,0.7c-1.9,0-3.8,0-5.7,0C433.9,654.6,433.9,654.5,433.9,654.5z" style="fill: rgb(229, 80, 41);"/>
      <path class="st9" d="M451.1,645.7c0,0-0.1-0.1-0.1-0.1C451.1,645.6,451.1,645.6,451.1,645.7z" style="fill: rgb(233, 234, 233);"/>
      <path class="st9" d="M450.7,649.8C450.7,649.8,450.7,649.8,450.7,649.8c0-0.1,0-0.1,0-0.1C450.7,649.8,450.7,649.8,450.7,649.8z" style="fill: rgb(233, 234, 233);"/>
      <path class="st20" d="M433.9,654.5c0,0,0.1,0.1,0.1,0.1C433.9,654.6,433.9,654.6,433.9,654.5z" style="fill: rgb(235, 102, 44);"/>
      <path class="st9" d="M445.3,659.2C445.3,659.2,445.3,659.1,445.3,659.2C445.4,659.1,445.4,659.1,445.3,659.2 C445.3,659.2,445.3,659.2,445.3,659.2C445.3,659.2,445.3,659.2,445.3,659.2z" style="fill: rgb(233, 234, 233);"/>
    </g>
  </g>
  <rect x="385.037" y="314.781" width="421.533" height="47.445" style="fill: rgb(63, 61, 86);"/>
  <text style="fill: rgb(255, 255, 255); font-family: Lato; font-size: 29px; font-weight: 900; letter-spacing: 2.4px; text-transform: uppercase; word-spacing: -5.3px; white-space: pre;" x="443.219" y="345.766">Ameesha Heshan</text>
</svg>